<svg xmlns="http://www.w3.org/2000/svg" xmlns:xlink="http://www.w3.org/1999/xlink"><defs><clipPath id="clip0_1:2844"><path fill="#fff" d="M0 0h24v24H0z"/></clipPath></defs><symbol id="icon-account"><g clip-path="url(#clip0_1:2844)" fill="#fff"><path d="M24 12c0-6.632-5.367-12-12-12C5.368 0 0 5.367 0 12c0 6.573 5.322 12 12 12 6.65 0 12-5.396 12-12zM12 1.406c5.842 0 10.594 4.753 10.594 10.594 0 2.137-.636 4.19-1.814 5.93-4.733-5.09-12.818-5.1-17.56 0A10.545 10.545 0 011.407 12C1.406 6.159 6.16 1.406 12 1.406zM4.098 19.055c4.208-4.72 11.598-4.72 15.805 0-4.223 4.723-11.581 4.725-15.805 0z"/><path d="M12 12.703a4.224 4.224 0 004.219-4.219V7.078A4.224 4.224 0 0012 2.86a4.224 4.224 0 00-4.219 4.22v1.405a4.224 4.224 0 004.22 4.22zM9.188 7.078A2.816 2.816 0 0112 4.266a2.816 2.816 0 012.813 2.812v1.406A2.816 2.816 0 0112 11.297a2.816 2.816 0 01-2.812-2.813V7.078z"/></g></symbol><symbol id="icon-chat"><path d="M38.432 166.198c-.344 0-.687-.138-.962-.344-.687-.549-.824-1.511-.275-2.198.893-1.1-1.305-3.779-3.572-6.527-4.947-5.909-12.367-14.841-2.2-25.147 6.39-6.458 6.253-9.138 5.91-10.031-.619-1.511-3.573-1.855-4.604-1.855h-.068c-.894 0-1.58-.687-1.58-1.58s.686-1.58 1.58-1.58c.618 0 5.977.068 7.557 3.779 1.374 3.229-.756 7.626-6.596 13.466-8.107 8.245-2.542 14.909 2.405 20.886 3.16 3.779 6.115 7.421 3.642 10.512-.344.413-.825.619-1.237.619z" fill="#C8DBF4"/><path d="M15.484 151.907h33.803L41.8 184.13H22.973l-7.489-32.223z" fill="#D4E4F8"/><path d="M15.14 153.35h34.491c.824 0 1.443-.619 1.443-1.443 0-.825-.619-1.443-1.443-1.443h-34.49c-.825 0-1.443.618-1.443 1.443 0 .824.618 1.443 1.443 1.443z" fill="#9FC1F4"/><path d="M44.272 117.966l-31.948 10.581S.78 120.714 9.164 117.21c-3.985-6.801-4.535-20.13 8.382-23.978C30.394 89.385 29.5 108.141 29.5 108.141s15.871-16.764 15.116 3.161c3.023-.825 15.802 2.198-.344 6.664z" fill="#C8DBF4"/><path d="M17.614 132.463h38.75s10.238-7.214-.48-6.87c2.13-9.207-3.848-19.307-17.383-19.65-13.535-.344-8.794 14.634-8.794 14.634s-22.742-5.428-15.872 5.771c-11.199.481-5.427 3.367 3.78 6.115z" fill="#D4E4F8"/><path d="M48.532 134.524l-30.437 1.1c-1.511.068-2.954-.687-3.985-2.13-1.168-1.649-1.443-3.642 3.435-4.26-1.58-4.809 1.855-13.191 14.497-13.878 12.573-.619 6.252 10.992 6.252 10.992s19.032-8.313 12.574 4.054c2.817-.137 13.397 3.573-2.336 4.122z" fill="#C8DBF4"/><path d="M118.33 187.34l2.88-84.232-2.887.396-2.688 84.205 2.695-.369zm42.237-.093l1.032-84.23 2.645.516-.844 84.267-2.833-.553zm20.517-.035l-3.55-83.815 2.344.208 3.549 83.815-2.343-.208z" fill="#9FC1F4"/><path d="M180.28 100.336h-79.566v3.527h79.566v-3.527z" fill="#C8DBF4"/><path d="M98.82 186.311l8.186-83.708-3.034.136-7.984 83.7 2.832-.128z" fill="#9FC1F4"/><path opacity=".2" d="M180.209 100.336h-18.454v3.527h18.454v-3.527z" fill="#3A7CD5"/><path d="M142.315 73.432H173.8c1.037 0 1.75 1.067 1.555 2.379l-2.656 22.064c-.129 1.313-1.101 2.379-2.138 2.379h-31.485c-1.037 0-1.749-1.066-1.555-2.379l2.656-22.064c.194-1.312 1.166-2.379 2.138-2.379z" fill="#9DB6FE"/><path d="M141.862 73.432h31.485c1.037 0 1.749 1.067 1.555 2.379l-2.656 22.064c-.13 1.313-1.102 2.379-2.138 2.379h-31.486c-1.036 0-1.749-1.066-1.554-2.379l2.656-22.064c.129-1.312 1.101-2.379 2.138-2.379z" fill="#9DB6FE"/><path opacity=".99" d="M139.251 99.058c-.312 0-.562-.158-.75-.395-.187-.316-.249-.632-.187-1.027l2.56-21.266c.125-.949.812-1.66 1.499-1.66h30.345c.313 0 .562.158.75.395.187.316.249.632.187 1.028l-2.56 21.265c-.125.95-.812 1.66-1.499 1.66h-30.345z" fill="#fff"/><mask id="a" style="mask-type:alpha" maskUnits="userSpaceOnUse" x="138" y="74" width="36" height="26"><path opacity=".99" d="M139.251 99.058c-.312 0-.562-.158-.75-.395-.187-.316-.249-.632-.187-1.027l2.56-21.266c.125-.949.812-1.66 1.499-1.66h30.345c.313 0 .562.158.75.395.187.316.249.632.187 1.028l-2.56 21.265c-.125.95-.812 1.66-1.499 1.66h-30.345z" fill="#fff"/></mask><g mask="url(#a)"><path d="M148.348 99.352l3.628-24.463h-5.24l-2.15 12.121-1.21 12.342h4.972z" fill="#F1F4FA"/></g><path d="M129.423 99.352h41.786c.389 0 .648.41.583.902h-43.147c.065-.492.389-.902.778-.902z" fill="#9DB6FE"/><path d="M97.09 177.357l-5.167 2.543-6.48-10.827 5.25-2.543 6.397 10.827z" fill="#FFB573"/><path d="M91.266 179.079l6.07-2.624c.246-.082.493 0 .575.164l2.624 4.019c.246.41 0 1.066-.492 1.23-2.133.903-3.199 1.231-5.906 2.297-1.64.738-5.577 2.461-7.874 3.445-2.215.984-3.28-.984-2.46-1.558 3.855-2.625 5.577-4.594 6.561-6.316.328-.328.574-.575.902-.657z" fill="#263238"/><path opacity=".2" d="M92.907 170.303l-5.167 2.542 3.28 5.578 5.414-2.297-3.527-5.823z" fill="#000"/><path d="M89.052 89.099s-16.897 22.556-21.9 33.548c-5.496 12.057 20.752 52.823 20.752 52.823l9.597-2.789S75.719 132.53 78.67 128.1c8.203-12.385 31.953-38.755 31.953-38.755l-21.572-.246z" fill="#2D1686"/><path opacity=".3" d="M95.368 106.734c-4.593 6.726-6.562 18.701-6.808 26.576 2.625-4.84 5.413-9.925 8.038-14.601 1.723-4.429 3.445-8.776 5.086-12.467-.41-2.543-2.789-4.594-6.316.492z" fill="#000"/><path d="M98.485 173.994l-10.5 4.757-3.034-3.117 12.468-5.659 1.066 4.019z" fill="#2D1686"/><path d="M100.453 43.658a79.432 79.432 0 01-3.28 5.905 81.92 81.92 0 01-3.692 5.578l-1.968 2.707c-.739.902-1.395 1.804-2.133 2.624-1.476 1.723-3.035 3.446-4.757 5.086-.41.41-.903.82-1.313 1.23-.492.41-.902.82-1.394 1.149l-1.477 1.066c-.164.082-.082.082-.656.41-.41.246-.82.41-1.23.574-.902.329-1.805.41-2.707.328-.902-.082-1.805-.41-2.625-.902a6.196 6.196 0 01-1.148-.902 3.564 3.564 0 01-.492-.574c-.164-.164-.328-.41-.328-.492-.41-.657-.739-1.395-.985-1.969-.574-1.312-.82-2.46-1.148-3.61-.574-2.378-.82-4.592-.984-6.807-.164-2.215-.246-4.43-.164-6.726.082-1.477 1.312-2.625 2.788-2.543 1.23.082 2.297-.328 2.543.82.985 3.938 2.05 9.351 3.445 12.878.328.82.739 1.723 1.149 2.297.164.328.41.574.574.82.082.082 0-.082-.082-.164s-.164-.164-.164-.246c-.164-.164-.328-.328-.492-.41-.329-.246-.739-.328-1.149-.41-.41-.082-.738 0-1.148.082-.328.082-.902.492-.492.164l.984-.902c.656-.657 1.312-1.313 1.969-2.051 2.542-2.87 4.84-6.152 7.054-9.597 1.066-1.722 2.05-3.937 3.035-5.66 1.066-1.722 1.804-3.855 2.706-5.577 1.559-1.805 5.742-1.805 7.71-1.313 2.625.82 3.282 4.594 2.051 7.137z" fill="#4E33B5"/><path d="M88.724 54.485c-.41 1.886-.82 4.84-.82 7.382l.82-.82a67.675 67.675 0 005.578-6.562c.738-.902 1.394-1.887 2.05-2.871.41-1.066.738-2.05 1.148-3.117.082-.328.246-.656.329-1.066-2.707-1.313-7.547 0-9.105 7.054z" fill="#2D1686"/><path d="M72.565 45.79l-2.953-3.199-2.953 1.395s.492 1.968 1.559 4.019c.656 1.312 2.378 1.64 3.445.574a3.24 3.24 0 00.902-2.789z" fill="#FFAE73"/><path d="M80.783 169.283l-2.38 11.988 5.874 1.166 2.38-11.988-5.874-1.166z" fill="#FFB573"/><path d="M78.23 180.642l6.643 1.312c.246.082.41.247.328.411l-.902 4.593c-.082.492-.738.82-1.23.738-2.297-.492-3.363-.82-6.234-1.394-1.804-.328-6.726-1.149-9.269-1.641-2.378-.492-1.804-2.625-.738-2.543 4.921.083 8.367-.492 10.335-1.312.328-.246.738-.246 1.067-.164z" fill="#263238"/><path opacity=".2" d="M85.201 175.884l-5.823-1.148-1.23 6.152 5.905 1.23 1.148-6.234z" fill="#000"/><path d="M100.704 89.267s-9.76 26.904-12.631 38.223c-3.2 12.386-12.058 49.953-12.058 49.953l10.745 1.641s9.105-33.568 13.944-45.626c5.033-21.02 19.458-29.263 20.506-43.945-6.562 0-20.506-.246-20.506-.246z" fill="#2D1686"/><path d="M87.17 181.134l-12.187-2.871.864-3.414 12.718 3.414-1.395 2.871z" fill="#2D1686"/><path d="M88.428 89.594s-.87.604-1.612 3.613c0 0 30.399 1.051 33.772.333 0 0 .719-3.32.066-3.475-.692-.159-32.226-.47-32.226-.47z" fill="#273037"/><path d="M103.926 89.579s-4.458-.141-5.999-.036l-.532 4.062 5.839.254.692-4.28z" fill="#69737A"/><path d="M92.497 40.13c.656-2.05 2.46-3.609 4.511-3.937 1.64-.246 2.461-.574 4.512-.656 3.609-.246 9.596 0 13.698.246 2.378.164 4.839.492 6.808.82h.082c2.132.328 3.527 2.379 3.117 4.512-1.067 5.577-3.938 15.092-4.43 24.197-.656 11.975-8.448 13.862.492 24.443l-32.317-.574c-.41-8.285 3.691-15.257 4.347-21.654 1.64-14.929-2.296-22.721-.82-27.397z" fill="#fff"/><path d="M114.397 35.127c-1.64 6.316-7.956 16.487-9.268 34.04.492 9.597 2.296 23.178 3.445 29.658h15.174c.328-3.035-4.347-19.733-2.871-29.658 1.395-9.597 5.66-21.408 6.808-27.232.41-2.215.082-4.02.082-4.02l-4.019-.983c-2.05-.329-5.495-1.477-7.956-1.641-.492-.082-.984-.164-1.395-.164z" fill="#4E33B5"/><path d="M100.699 37.506c5.168 2.87 14.109-.246 14.109-.246s-1.395-2.871-1.313-8.53v-.903c-.574-.246-1.558-.82-2.707-1.395l-5.249 2.707s-.328 1.64-.492 4.43c0 .492-.082 1.066-.082 1.64-2.543.82-4.266 2.297-4.266 2.297z" fill="#FFAE73"/><path d="M105.621 29.221s-.328 1.64-.492 4.43c4.511-.247 7.382-3.446 8.366-4.922v-.902c-.574-.246-1.558-.82-2.707-1.395l-5.167 2.79z" fill="#D79573"/><path d="M103.662 31.534s10.358.99 10.808-5.494c.541-6.485 2.162-10.628-4.413-11.53-6.575-.9-8.016 1.442-8.737 3.604-.72 2.071-.36 12.97 2.342 13.42z" fill="#FFAE73"/><path d="M113.57 28.561s.63-2.071-.27-3.602c0 0 .991-1.982.27-2.522-.721-.54-1.351 1.17-1.711.81-.271-.36-1.712-2.161-1.892-4.323-.18-2.162-7.566-1.531-8.376-1.441-.901.18-3.063-1.801-3.243-2.972 0 0 1.712-.72 2.522-1.441.811-.63 6.755-5.134 12.43-1.982 5.674 3.243 5.764 6.395 4.773 8.827-.99 2.432-1.711 8.466-4.503 8.646z" fill="#232729"/><path opacity=".2" d="M118.991 82.701c-.082 0-.164 0-.164-.082-3.445-4.593-4.758-8.94-4.758-8.94 0-.083 0-.247.164-.247.082 0 .246 0 .246.164 0 .082 1.313 4.266 4.676 8.859a.25.25 0 010 .328c-.082-.082-.164-.082-.164-.082z" fill="#fff"/><path d="M121.288 46.282c-1.395 5.742-1.149 12.96 0 20.178 1.886-9.843 3.034-17.963 4.265-24.525-1.395-.902-3.117-.246-4.265 4.347z" fill="#2D1686"/><path d="M89.38 41.77c.82-2.378 1.64-5.249 1.64-5.249s10.5-1.394 11.32-1.394c-1.805 5.988-3.527 35.762-3.527 35.762s-3.855 20.213-7.71 28.005l-8.613-1.483c4.265-8.858 8.203-23.815 8.613-29.556.41-5.66-3.117-22.311-1.723-26.084z" fill="#4E33B5"/><path d="M107.835 38.162l-1.148 1.066 3.527 1.313-.41-1.313-1.969-1.066z" fill="#E0E0E0"/><path d="M108.82 41.935s0-3.035-1.313-3.773c4.594-1.23 7.629-3.691 7.629-3.691l2.05.82s-1.394 3.445-8.366 6.644z" fill="#fff"/><path d="M105.867 38.08c.246-.082.492.082.656.246l.574.984-3.691.328.656-.984c.082-.164.246-.246.328-.246l1.477-.328z" fill="#E0E0E0"/><path d="M103.16 42.427s1.887-2.953 4.676-4.265c-1.969-.574-3.281-3.527-3.281-3.527l-1.969.41c-.082 0-2.297 4.347.574 7.382z" fill="#fff"/><path d="M127.85 38.244s.82 3.527 1.312 4.675c.492 1.148.902 2.87 1.312 4.101.821 2.379 1.149 4.43 1.805 6.89 1.394 4.84 2.461 9.843 2.871 15.175.328 5.167.246 10.007 0 14.928a214.427 214.427 0 01-1.231 14.6c-.164 1.477-1.476 2.461-2.953 2.297-1.23-.164-2.132-1.148-2.296-2.296-.574-4.758-.985-9.597-1.395-14.355-.246-2.378-.41-4.757-.656-7.136-.246-2.379-.492-4.675-.82-6.89-.656-4.347-1.969-8.694-3.445-13.124a208.191 208.191 0 00-2.297-6.562c-.738-2.214-1.64-4.429-2.461-6.48l-.082-.082c-1.066-2.706.082-6.89 3.035-6.89 2.871-.164 7.301 1.149 7.301 1.149z" fill="#4E33B5"/><path d="M128.67 98.04l-3.445 1.64 5.823 2.051s3.938-1.231 2.051-3.363l-1.066-.328c-1.641-.575-2.461-.493-3.363 0z" fill="#FFAE73"/><path d="M123.338 103.371l6.07 1.148 1.641-2.788-5.824-2.051-1.887 3.691z" fill="#FFAE73"/><path d="M107.179 38.49s.575 2.87.246 3.773c0 0-1.886.492-3.116-.41-.083 0 1.066-1.723 2.87-3.363z" fill="#E34208"/><path d="M105.047 41.607s-5.004 10.335-5.25 22.31c-.246 12.386.574 16.98.574 16.98l2.379 3.444 1.476-3.937s-2.296-15.995 1.149-31.169c.656-2.707 1.64-7.956 1.64-7.956l-1.968.328z" fill="#E34208"/><path d="M70.104 47.595s-1.722-.657-2.87-1.559c-1.149-.984-3.117-3.363-3.446-3.609-.328-.164-3.28-7.218-4.019-7.628-.738-.41 1.067-.82 2.297.984 1.23 1.805 3.609 4.347 4.757 4.511 1.149.165.739-1.804 1.64-2.05.821-.164.739.082.985.328.328.328-.82 2.379 0 3.28.82.903.574 2.298 1.148 3.036.575.738.657-.328.657-.328l-1.149 3.035z" fill="#FFAE73"/><path d="M34.24 2.201h37.672c4.348 0 8.11 3.527 8.345 7.875l1.41 22.568.47 7.346-7.757-7.346H36.12c-4.348 0-8.11-3.526-8.344-7.875l-.94-14.692C26.6 5.726 29.89 2.2 34.24 2.2z" fill="#9DB6FE"/><path d="M36.18 12.956h35.614c.705 0 1.293-.588 1.234-1.293a1.411 1.411 0 00-1.41-1.293H36.062c-.705 0-1.293.588-1.234 1.293.059.705.646 1.293 1.352 1.293zm.411 6.054h35.615c.705 0 1.293-.588 1.234-1.293a1.411 1.411 0 00-1.41-1.293H36.414c-.705 0-1.293.587-1.234 1.293.059.705.705 1.293 1.41 1.293zm12.518 6.053h23.508c.705 0 1.293-.588 1.234-1.293a1.411 1.411 0 00-1.41-1.293H48.933c-.706 0-1.293.588-1.234 1.293.058.705.705 1.293 1.41 1.293z" fill="#fff"/><path d="M47.581 39.931H9.91c-4.35 0-7.64 3.527-7.346 7.876L3.62 64.38l.47 7.346 6.877-7.346h38.259c4.349 0 7.64-3.526 7.346-7.875l-.53-8.698c-.352-4.29-4.113-7.876-8.462-7.876z" fill="#F25B24"/><path d="M46.934 50.745H11.32c-.705 0-1.352-.588-1.41-1.293-.06-.705.529-1.293 1.234-1.293h35.614c.706 0 1.352.588 1.41 1.293.06.705-.47 1.293-1.233 1.293zM35.18 56.798H11.674c-.705 0-1.352-.587-1.41-1.293-.06-.705.528-1.293 1.233-1.293h23.508c.706 0 1.352.588 1.41 1.293.06.706-.47 1.293-1.233 1.293z" fill="#fff"/><path d="M38.59 71.667h37.67c4.35 0 8.11 3.526 8.346 7.875l1.117 17.631.47 7.346-7.758-7.346h-38.2c-4.35 0-8.11-3.526-8.345-7.875l-.647-9.814c-.294-4.232 3.056-7.817 7.346-7.817z" fill="#9DB6FE"/><path d="M53.752 83.48c.117 1.528 1.41 2.762 2.938 2.762 1.528 0 2.704-1.234 2.586-2.762-.117-1.528-1.41-2.762-2.938-2.762-1.528 0-2.704 1.234-2.586 2.762zm-10.226 0c.117 1.528 1.41 2.762 2.938 2.762 1.528 0 2.704-1.234 2.586-2.762-.117-1.528-1.41-2.762-2.938-2.762-1.528 0-2.645 1.234-2.586 2.762zm21.568 0c.118 1.528 1.41 2.762 2.939 2.762 1.528 0 2.703-1.234 2.586-2.762-.118-1.528-1.41-2.762-2.939-2.762-1.528 0-2.703 1.234-2.586 2.762z" fill="#fff"/><path d="M141.458 78.29h3.915l-.23 1.129h-3.914l.229-1.13z" fill="#D4E4F8"/><path d="M146.908 77.626h3.914l-.229 1.13h-3.915l.23-1.13z" fill="#9FC1F4"/><path d="M157.802 79.737a.999.999 0 01.986-.834h11.832a1 1 0 01.986 1.166l-.615 3.662h-12.678a1 1 0 01-.987-1.166l.476-2.828zm-1.967 12.77a1 1 0 01.986-.835h11.833a1 1 0 01.986 1.166l-.615 3.662h-12.679a1 1 0 01-.986-1.166l.475-2.827z" fill="#DCE9FC"/><path d="M151.493 85.704a1 1 0 01.987-.835h11.832a1 1 0 01.986 1.166l-.475 2.828a1 1 0 01-.986.834h-13.014l.67-3.993z" fill="#9FC1F4"/><path d="M141.208 79.91h3.915l-.229 1.129h-3.915l.229-1.13z" fill="#D4E4F8"/><path d="M146.658 79.246h3.915l-.229 1.13h-3.915l.229-1.13z" fill="#9FC1F4"/><path d="M140.959 81.727h3.915l-.229 1.13h-3.915l.229-1.13z" fill="#D4E4F8"/><path d="M146.409 81.064h3.915l-.229 1.13h-3.915l.229-1.13zm-.28 1.62h3.914l-.229 1.13H145.9l.229-1.13z" fill="#9FC1F4"/><path d="M140.726 83.347h3.915l-.229 1.13h-3.915l.229-1.13z" fill="#D4E4F8"/><path d="M145.848 84.305h3.915l-.229 1.129h-3.915l.229-1.13z" fill="#9FC1F4"/><circle cx="147.092" cy="78.157" r=".746" fill="#D4E4F8"/><circle cx="146.779" cy="79.86" r=".746" fill="#D4E4F8"/><circle cx="146.479" cy="81.596" r=".746" fill="#D4E4F8"/><circle cx="146.199" cy="83.298" r=".746" fill="#D4E4F8"/><circle cx="145.869" cy="85" r=".746" fill="#D4E4F8"/></symbol><symbol id="icon-check"><path d="M0 7.447l4.794 4.803L14 3.053 12.678 1.75 4.794 9.625l-3.49-3.49L0 7.446z" fill="#7DC166"/></symbol><symbol id="icon-close"><path d="M8.283 7.011l5.451-5.451A.906.906 0 1012.452.277L7 5.73 1.55.277A.906.906 0 10.266 1.56l5.452 5.45-5.452 5.453a.906.906 0 101.283 1.282L7 8.294l5.452 5.451a.905.905 0 001.282 0 .906.906 0 000-1.282L8.283 7.01z" fill="#918D9A"/></symbol><symbol id="icon-copyright"><path opacity=".03" fill-rule="evenodd" clip-rule="evenodd" d="M144.291 91.984L90.77.094 75.659 26.136 60.48.109.73 102.846h42.917l.001-.001h33.677l53.521 91.89 15.111-26.041 15.178 26.027 59.75-102.737H144.29zm-42.988 0H49.972l25.693-44.135 25.638 44.135zm-11.344 10.861l40.87 70.169 8.803-15.168-.003-.004.001-.002-32.015-54.995H89.959zm-52.62-10.86H19.675L60.494 21.8l8.858 15.19-32.014 54.994zm53.448-70.17l-8.802 15.169.002.004-.002.004 31.945 54.992h17.728l-40.87-70.17zm29.461 81.03h51.398l-25.699 44.145-25.699-44.145zm64.029 0l-32.013 54.992 8.859 15.192 40.818-70.184h-17.664z" fill="#201D26"/><path d="M19.45 88.97h4.355l4.83 7.788 4.829-7.788h4.312v18.389h-4.01V95.33l-5.175 7.875h-.086l-5.131-7.788v11.942h-3.967v-18.39h.043zm21.69 0h13.84v3.591h-9.83v3.721h8.667v3.592H45.15v3.85h9.96v3.635H41.14v-18.39zm16.514 0h7.158c5.779 0 9.746 3.98 9.746 9.216 0 5.192-3.968 9.216-9.746 9.216h-7.158V88.97zm7.158 14.754c3.32 0 5.52-2.25 5.52-5.538 0-3.245-2.242-5.538-5.52-5.538h-3.104v11.12h3.104v-.044zM77.275 88.97h4.053v18.389h-4.053v-18.39zm13.885-.13h3.708l7.891 18.519h-4.225l-1.682-4.111H89.09l-1.681 4.111h-4.097l7.848-18.52zm4.226 10.817l-2.415-5.971-2.458 5.971h4.873zm8.106-10.687h2.242l5.261 15.317 5.045-15.404h1.725l5.045 15.404 5.261-15.317h2.156l-6.555 18.562h-1.811l-5.045-14.928-5.045 14.928h-1.725l-6.554-18.562zm27.641 9.216c0-5.063 3.794-9.52 9.4-9.52 5.562 0 9.314 4.414 9.314 9.52 0 5.062-3.795 9.519-9.4 9.519-5.563 0-9.314-4.413-9.314-9.52zm16.558 0c0-4.197-3.062-7.615-7.244-7.615-4.183 0-7.202 3.375-7.202 7.615 0 4.197 3.062 7.615 7.245 7.615 4.226-.043 7.201-3.418 7.201-7.615zm5.476-9.216h7.891c2.242 0 4.053.692 5.217 1.86.906.909 1.423 2.164 1.423 3.678 0 3.072-2.113 4.846-4.958 5.366l5.605 7.485h-2.544l-5.304-7.139h-5.26v7.139h-2.07v-18.39zm7.718 9.39c2.76 0 4.701-1.429 4.701-3.852 0-2.25-1.725-3.634-4.701-3.634h-5.648v7.485h5.648zm26.52 6.316l1.293-1.514c1.897 1.731 3.752 2.596 6.296 2.596 2.458 0 4.096-1.298 4.096-3.202 0-1.731-.905-2.683-4.786-3.505-4.226-.908-6.166-2.293-6.166-5.365 0-2.9 2.544-5.02 6.036-5.02 2.674 0 4.571.78 6.469 2.25l-1.208 1.602c-1.725-1.385-3.406-1.99-5.304-1.99-2.371 0-3.924 1.297-3.924 3.028 0 1.73.949 2.726 5.002 3.591 4.097.91 5.994 2.38 5.994 5.279 0 3.159-2.63 5.193-6.252 5.193-2.933 0-5.347-.952-7.546-2.943zm-11.557-7.226l10.522-8.567h-2.717l-10.521 8.524h.043v-8.524h-2.113v18.562h2.113v-7.831l1.207-.995 9.271 8.826h2.717l-10.522-9.995z" fill="#201D26"/></symbol><symbol id="icon-info"><g opacity=".46"><path opacity=".46" d="M181.202 44.189H82.49a1.552 1.552 0 01-1.518-1.978l9.2-35.419c.184-.69.828-1.196 1.518-1.196h98.665c1.058 0 1.794.966 1.518 1.978l-9.199 35.419c-.138.736-.782 1.196-1.472 1.196z" fill="#BFD9FF"/><g opacity=".46"><path opacity=".46" d="M130.374 14.014h-34.36a.775.775 0 01-.782-.782c0-.414.368-.782.782-.782h34.36c.46 0 .782.368.782.782a.775.775 0 01-.782.782zm-2.622 15.823h-34.36a.775.775 0 01-.782-.782c0-.414.368-.782.782-.782h34.36c.46 0 .782.368.782.782a.806.806 0 01-.782.782zm14.444-5.979h-34.361a.775.775 0 01-.782-.782c0-.414.368-.782.782-.782h34.361c.46 0 .782.368.782.782a.806.806 0 01-.782.782zm-36.753-4.554H95.14a.775.775 0 01-.782-.782c0-.414.368-.782.782-.782h10.303c.46 0 .782.368.782.782a.775.775 0 01-.782.782zm-1.38 4.554H93.76a.775.775 0 01-.782-.782c0-.414.368-.782.782-.782h10.303c.46 0 .782.368.782.782a.806.806 0 01-.782.782zm44.02-9.844h-12.235a.775.775 0 01-.782-.782c0-.414.368-.782.782-.782h12.235c.46 0 .782.368.782.782a.806.806 0 01-.782.782z" fill="#A9C2FF"/><path opacity=".46" d="M141.828 36.783h-18.262a.418.418 0 01-.322-.138c-.092-.092-.092-.23-.092-.368l.828-3.128a.442.442 0 01.414-.322h18.262c.138 0 .23.046.322.138.092.092.092.23.092.368l-.828 3.128a.442.442 0 01-.414.322zm-18.124-.552h18.032l.736-2.898H124.44l-.736 2.898zm-4.599.552h-18.262a.418.418 0 01-.322-.138c-.092-.092-.092-.23-.092-.368l.828-3.128a.442.442 0 01.414-.322h18.262c.138 0 .23.046.322.138.092.092.092.23.092.368l-.828 3.128a.442.442 0 01-.414.322zm-18.124-.552h18.032l.736-2.898h-17.986l-.782 2.898z" fill="#84AEE5"/></g><path opacity=".46" d="M173.934 31.953c-.92-1.242-4.738-2.162-5.796-3.404-.552-.644-.552-1.84-.414-2.805.368-.23.69-.46.874-.69.322-.46.69-1.104 1.012-1.794.092.092.23.184.46.184.506 0 2.392-2.622 1.886-3.22-.276-.322-.736-.046-1.058.276.506-1.15.874-2.024.874-2.024.046-.138.092-.276.138-.46.736-3.036-1.104-5.474-4.094-5.474-3.036 0-6.071 2.438-6.853 5.474-.046.138-.046.276-.092.46 0 0-.092.874-.138 2.024-.184-.322-.46-.598-.92-.276-.782.598-.184 3.174.322 3.22.184 0 .368-.092.506-.184 0 .69.046 1.334.138 1.793.092.276.368.552.69.874-.368.966-.966 2.07-1.748 2.668-1.656 1.242-5.934 2.162-7.498 3.404-1.38 1.104-2.668 4.416-2.898 5.06h25.023c.046-.736.46-4.002-.414-5.106z" fill="#8DBCF8"/></g><path d="M163.998 72.661H65.333c-.598 0-1.104-.276-1.472-.736-.368-.46-.46-1.058-.322-1.61l9.2-35.418c.23-.828.965-1.38 1.793-1.38h98.666c.598 0 1.104.276 1.472.736.368.46.46 1.058.322 1.61l-9.2 35.372a1.827 1.827 0 01-1.794 1.426zM74.533 34.07c-.599 0-1.105.414-1.288.966l-9.2 35.418c-.092.414 0 .828.23 1.15.23.322.644.506 1.058.506h98.665c.598 0 1.15-.414 1.288-.966l9.2-35.372c.092-.414 0-.828-.23-1.15-.23-.322-.644-.506-1.058-.506H74.532v-.046z" fill="#7094D8"/><path d="M162.159 69.764H63.493a1.552 1.552 0 01-1.518-1.978l9.2-35.419c.184-.69.828-1.196 1.518-1.196h98.665c1.058 0 1.794.966 1.518 1.978l-9.2 35.419c-.138.69-.782 1.196-1.517 1.196z" fill="#B4CEFF"/><path d="M154.201 64.474H132.03c-1.012 0-1.656-.828-1.38-1.84l5.566-22.493c.276-1.012 1.288-1.84 2.3-1.84h22.171c1.012 0 1.656.828 1.38 1.84l-5.566 22.447c-.23 1.058-1.288 1.886-2.3 1.886z" fill="#B7DEFF"/><path d="M143.299 64.566l1.932-7.774-3.174-1.334s-5.934 2.162-6.439 2.714c-.414.46-2.576 4.968-3.22 6.44h10.901v-.046zm10.994 0c.046-1.472.184-5.98 0-6.44-.23-.506-5.106-2.714-5.106-2.714l-3.864 1.334-1.932 7.774h10.902v.046z" fill="#023F61"/><path d="M145.323 64.566l3.036-6.762-6.532.368-.644 6.394h4.14z" fill="#BEBECF"/><path d="M143.253 53.986l-1.426.92-.919 2.208-.276 3.082 2.023-.828 1.564 1.886 2.07-1.702 1.288 1.196 1.932-4.14-.368-2.53-.782-.368-5.106.276z" fill="#DEE0E8"/><path d="M143.667 48.099s-.46-1.104-1.472-.368c-.966.736.184 3.495.874 2.667.736-.828.598-2.3.598-2.3zm6.992-.046s.92-1.15 1.656-.506c.69.644-1.61 3.587-1.978 2.806-.414-.828.322-2.3.322-2.3zm-2.162 8.095l1.012-5.336-5.796.507-1.288 5.013s1.012 2.346 2.116 3.404c-.046 0 3.358-2.898 3.956-3.588z" fill="#F99352"/><path d="M153.189 45.89c-.23.645-.736.828-.782 1.197-.046.367-.276 1.333-.644 1.701-.368.368-.552.506-.552.506s-4.968 1.38-7.498-.552c0 0-.184-.735 0-1.61.184-.873-.23-1.011.23-1.471.506-.414.644-.828.644-1.288 0-.506.046-1.058.552-1.564s.966-.322 1.426-.736c0 0 .736-1.196 1.702-1.38.966-.138 2.99-.644 4.186.828 1.196 1.472.644 2.76 1.012 3.22.322.506-.276 1.15-.276 1.15z" fill="#713336"/><path d="M143.667 47.178s-2.346 6.486 2.07 6.946c3.91.092 5.29-4.692 5.842-7.13.552-2.437.23-5.013-2.898-4.921-3.128.092-4.692 3.633-5.014 5.105z" fill="#FFAE73"/><path d="M144.863 44.879s.276.506 0 1.058c-.276.506-1.012.736-1.104 1.426-.092.69-.414 2.115-.644 2.208-.184.046-.046-1.38-.046-1.886.046-.506.414-2.576 1.472-3.91s1.702-1.886 3.542-2.162c1.84-.322 3.266.46 3.772 1.61.506 1.15-.322 4.002-.322 4.002s.138-1.38-.322-1.702c-.46-.322-.828-.552-.782-.736.092-.184-1.472.506-3.036 0s-2.024-.276-2.3-.092a.518.518 0 00-.23.184z" fill="#713336"/><path d="M139.803 64.428l-.184-.092.46-.966-1.84-.92.046-.092c.828-2.024 2.116-5.06 2.162-5.198l.23.046c-.046.138-1.702 4.094-2.116 5.106l1.886.92-.644 1.196zm6.992-.046v-1.104l2.346-.92c.092-.966.414-5.014.414-5.152l.23.046c-.046.138-.276 3.174-.414 5.198v.092l-2.346.92v.966h-.23v-.046z" fill="#022755"/><path d="M154.201 64.704H132.03c-.552 0-1.058-.23-1.38-.644-.322-.414-.414-.966-.276-1.564l5.612-22.447c.276-1.15 1.426-2.07 2.576-2.07h22.171c.552 0 1.058.23 1.38.644.322.414.413.966.275 1.564l-5.611 22.493c-.276 1.104-1.426 2.024-2.576 2.024zm-15.685-26.127c-.92 0-1.84.736-2.07 1.656L130.88 62.68c-.092.414-.046.828.184 1.104.23.276.552.414.966.414h22.171c.92 0 1.84-.736 2.07-1.656l5.612-22.447c.092-.414.046-.828-.184-1.104-.23-.276-.552-.414-.966-.414h-22.217z" fill="#fff"/><path d="M111.377 40.417h-34.36a.775.775 0 01-.782-.782c0-.414.368-.782.782-.782h34.36c.46 0 .782.368.782.782a.806.806 0 01-.782.782zm-2.668 15.869h-34.36a.775.775 0 01-.782-.782c0-.414.368-.782.782-.782h34.36c.46 0 .782.368.782.782a.775.775 0 01-.782.782zm14.443-6.026h-34.36a.775.775 0 01-.782-.782c0-.414.368-.782.782-.782h34.36c.46 0 .782.368.782.782a.775.775 0 01-.782.782zm-36.706-4.553H76.142a.775.775 0 01-.781-.782c0-.414.367-.782.781-.782h10.304c.46 0 .782.368.782.782a.806.806 0 01-.782.782zM85.02 50.26H74.717a.775.775 0 01-.782-.782c0-.414.368-.782.782-.782H85.02c.46 0 .782.368.782.782a.775.775 0 01-.782.782zm44.02-9.843h-12.235a.775.775 0 01-.782-.782c0-.414.368-.782.782-.782h12.235c.46 0 .782.368.782.782a.775.775 0 01-.782.782z" fill="#73A5FF"/><path d="M122.83 63.186h-18.307a.418.418 0 01-.322-.138c-.092-.092-.092-.23-.092-.368l.828-3.128a.442.442 0 01.414-.322h18.261c.138 0 .23.046.322.138.092.092.092.23.092.368l-.828 3.128c-.046.184-.184.322-.368.322zm-18.123-.552h18.031l.736-2.898h-18.031l-.736 2.898zm-4.6.552h-18.26a.418.418 0 01-.323-.138c-.092-.092-.092-.23-.092-.368l.828-3.128a.442.442 0 01.414-.322h18.261c.138 0 .23.046.322.138.092.092.092.23.092.368l-.828 3.128c-.092.184-.23.322-.414.322zm-18.123-.552h18.031l.736-2.898H82.72l-.736 2.898z" fill="#7094D8"/><path d="M160.677 116.238H68.1a1.456 1.456 0 01-1.424-1.856l8.632-33.233c.172-.647.776-1.122 1.424-1.122h92.577c.993 0 1.684.906 1.425 1.856l-8.632 33.233c-.13.69-.734 1.122-1.425 1.122z" fill="#F25B24"/><path d="M113.029 87.925h-32.24a.727.727 0 01-.734-.733c0-.389.345-.734.734-.734h32.24c.432 0 .734.345.734.734a.757.757 0 01-.734.733zm-2.503 14.847h-32.24a.727.727 0 01-.734-.733c0-.389.345-.734.733-.734h32.241c.431 0 .733.345.733.734a.727.727 0 01-.733.733zm13.552-5.61h-32.24a.727.727 0 01-.734-.734c0-.389.345-.734.734-.734h32.24c.432 0 .734.345.734.734a.727.727 0 01-.734.734zm-34.442-4.273H79.97a.727.727 0 01-.734-.734c0-.388.345-.734.734-.734h9.668c.431 0 .733.346.733.734a.756.756 0 01-.734.734zm-1.337 4.273H78.63a.727.727 0 01-.734-.734c0-.389.346-.734.734-.734h9.668c.431 0 .733.345.733.734a.727.727 0 01-.733.734zm41.304-9.237h-11.481a.727.727 0 01-.734-.733c0-.389.346-.734.734-.734h11.481c.431 0 .733.345.733.734a.727.727 0 01-.733.733zm-5.827 21.321h-17.135a.394.394 0 01-.302-.129c-.086-.087-.086-.216-.086-.346l.777-2.934a.415.415 0 01.388-.303h17.135c.129 0 .215.044.302.13.086.086.086.216.086.345l-.777 2.935c-.086.216-.216.302-.388.302zm-17.005-.475h16.918l.691-2.719h-16.919l-.69 2.719zm-4.316.475H85.321a.392.392 0 01-.302-.129c-.087-.087-.087-.216-.087-.346l.777-2.934a.415.415 0 01.389-.303h17.134c.13 0 .216.044.302.13.086.086.086.216.086.345l-.776 2.935c-.087.216-.216.302-.389.302zm-17.005-.475h16.919l.69-2.719H86.141l-.69 2.719zm68.451-4.013c-.863-1.166-4.445-2.029-5.438-3.194-.518-.604-.518-1.727-.388-2.633.345-.216.647-.432.82-.647a11.7 11.7 0 00.949-1.684.577.577 0 00.432.173c.475 0 2.244-2.46 1.77-3.021-.259-.302-.691-.043-.993.259.475-1.08.82-1.9.82-1.9.043-.129.086-.258.129-.43.691-2.85-1.035-5.137-3.841-5.137-2.848 0-5.697 2.288-6.431 5.136-.043.13-.043.26-.086.432 0 0-.086.82-.129 1.899-.173-.302-.432-.561-.864-.26-.733.562-.172 2.979.302 3.022.173 0 .346-.086.475-.173 0 .648.043 1.252.13 1.684.086.259.345.517.647.82-.345.906-.906 1.942-1.64 2.503-1.554 1.165-5.568 2.028-7.035 3.194-1.295 1.036-2.503 4.143-2.719 4.747h23.479c.043-.69.388-3.755-.389-4.79z" fill="#fff" fill-opacity=".64"/><g opacity=".46"><path opacity=".46" d="M157.822 159H69.609a1.387 1.387 0 01-1.357-1.768l8.225-31.667c.164-.616.74-1.069 1.357-1.069h88.213c.946 0 1.604.864 1.358 1.769l-8.225 31.666c-.124.658-.7 1.069-1.358 1.069z" fill="#BFD9FF"/><g opacity=".46"><path opacity=".46" d="M112.42 132.022H81.7a.693.693 0 01-.7-.699.72.72 0 01.7-.699h30.72c.411 0 .699.329.699.699a.72.72 0 01-.699.699zm-2.385 14.147h-30.72a.693.693 0 01-.7-.699.72.72 0 01.7-.699h30.72c.411 0 .699.329.699.699 0 .37-.288.699-.699.699zm12.913-5.346h-30.68a.693.693 0 01-.699-.699.72.72 0 01.7-.699h30.72c.411 0 .699.329.699.699 0 .37-.329.699-.74.699zm-32.818-4.071h-9.212a.693.693 0 01-.7-.7.72.72 0 01.7-.699h9.212c.411 0 .699.329.699.699a.72.72 0 01-.7.7zm-1.275 4.071h-9.212a.693.693 0 01-.7-.699.72.72 0 01.7-.699h9.212c.411 0 .7.329.7.699 0 .37-.289.699-.7.699zm39.357-8.801h-10.94a.693.693 0 01-.699-.699.72.72 0 01.699-.699h10.94c.411 0 .699.329.699.699 0 .37-.288.699-.699.699z" fill="#A9C2FF"/><path opacity=".46" d="M122.66 152.338h-16.327a.376.376 0 01-.288-.123c-.082-.083-.082-.206-.082-.329l.74-2.797a.397.397 0 01.371-.288H123.4a.37.37 0 01.288.124c.082.082.082.205.082.329l-.74 2.796c-.082.206-.205.288-.37.288zm-16.203-.452h16.121l.658-2.591h-16.121l-.658 2.591zm-4.113.452H86.018a.374.374 0 01-.288-.123c-.083-.083-.083-.206-.083-.329l.74-2.797a.396.396 0 01.37-.288h16.328a.37.37 0 01.287.124c.083.082.083.205.083.329l-.741 2.796c-.082.206-.205.288-.37.288zm-16.203-.452h16.121l.658-2.591H86.799l-.658 2.591z" fill="#84AEE5"/></g><path opacity=".46" d="M151.366 148.061c-.823-1.11-4.236-1.933-5.182-3.043-.494-.576-.494-1.645-.37-2.509.329-.206.617-.411.781-.617.288-.411.617-.987.905-1.604a.55.55 0 00.411.165c.453 0 2.139-2.344 1.686-2.879-.246-.288-.658-.041-.946.247.453-1.028.782-1.81.782-1.81.041-.123.082-.247.123-.411.658-2.714-.987-4.894-3.66-4.894-2.714 0-5.429 2.18-6.128 4.894-.041.123-.041.247-.082.411 0 0-.082.782-.123 1.81-.165-.288-.412-.535-.823-.247-.699.535-.164 2.838.288 2.879.165 0 .329-.083.452-.165 0 .617.042 1.193.124 1.604.082.247.329.494.617.781-.329.864-.864 1.851-1.563 2.386-1.481 1.11-5.305 1.933-6.703 3.043-1.234.987-2.386 3.948-2.591 4.524h22.372c.041-.658.37-3.578-.37-4.565z" fill="#8DBCF8"/></g><g opacity=".46"><path opacity=".46" d="M157.822 159H69.609a1.387 1.387 0 01-1.357-1.768l8.225-31.667c.164-.616.74-1.069 1.357-1.069h88.213c.946 0 1.604.864 1.358 1.769l-8.225 31.666c-.124.658-.7 1.069-1.358 1.069z" fill="#BFD9FF"/><g opacity=".46"><path opacity=".46" d="M112.42 132.022H81.7a.693.693 0 01-.7-.699.72.72 0 01.7-.699h30.72c.411 0 .699.329.699.699a.72.72 0 01-.699.699zm-2.385 14.147h-30.72a.693.693 0 01-.7-.699.72.72 0 01.7-.699h30.72c.411 0 .699.329.699.699 0 .37-.288.699-.699.699zm12.913-5.346h-30.68a.693.693 0 01-.699-.699.72.72 0 01.7-.699h30.72c.411 0 .699.329.699.699 0 .37-.329.699-.74.699zm-32.818-4.071h-9.212a.693.693 0 01-.7-.7.72.72 0 01.7-.699h9.212c.411 0 .699.329.699.699a.72.72 0 01-.7.7zm-1.275 4.071h-9.212a.693.693 0 01-.7-.699.72.72 0 01.7-.699h9.212c.411 0 .7.329.7.699 0 .37-.289.699-.7.699zm39.357-8.801h-10.94a.693.693 0 01-.699-.699.72.72 0 01.699-.699h10.94c.411 0 .699.329.699.699 0 .37-.288.699-.699.699z" fill="#A9C2FF"/><path opacity=".46" d="M122.66 152.338h-16.327a.376.376 0 01-.288-.123c-.082-.083-.082-.206-.082-.329l.74-2.797a.397.397 0 01.371-.288H123.4a.37.37 0 01.288.124c.082.082.082.205.082.329l-.74 2.796c-.082.206-.205.288-.37.288zm-16.203-.452h16.121l.658-2.591h-16.121l-.658 2.591zm-4.113.452H86.018a.374.374 0 01-.288-.123c-.083-.083-.083-.206-.083-.329l.74-2.797a.396.396 0 01.37-.288h16.328a.37.37 0 01.287.124c.083.082.083.205.083.329l-.741 2.796c-.082.206-.205.288-.37.288zm-16.203-.452h16.121l.658-2.591H86.799l-.658 2.591z" fill="#84AEE5"/></g><path opacity=".46" d="M151.366 148.061c-.823-1.11-4.236-1.933-5.182-3.043-.494-.576-.494-1.645-.37-2.509.329-.206.617-.411.781-.617.288-.411.617-.987.905-1.604a.55.55 0 00.411.165c.453 0 2.139-2.344 1.686-2.879-.246-.288-.658-.041-.946.247.453-1.028.782-1.81.782-1.81.041-.123.082-.247.123-.411.658-2.714-.987-4.894-3.66-4.894-2.714 0-5.429 2.18-6.128 4.894-.041.123-.041.247-.082.411 0 0-.082.782-.123 1.81-.165-.288-.412-.535-.823-.247-.699.535-.164 2.838.288 2.879.165 0 .329-.083.452-.165 0 .617.042 1.193.124 1.604.082.247.329.494.617.781-.329.864-.864 1.851-1.563 2.386-1.481 1.11-5.305 1.933-6.703 3.043-1.234.987-2.386 3.948-2.591 4.524h22.372c.041-.658.37-3.578-.37-4.565z" fill="#8DBCF8"/></g><path d="M56.915 19.672h-1.794c-.46 0-.736-.368-.598-.828l.46-1.794c.092-.46.552-.828 1.012-.828h1.794c.46 0 .736.368.598.828l-.46 1.794c-.092.46-.552.828-1.012.828z" fill="#BFD9FF"/><path d="M55.582 24.962h-1.794c-.46 0-.736-.368-.598-.828l.46-1.794c.092-.46.552-.828 1.012-.828h1.794c.46 0 .736.368.598.828l-.46 1.794c-.092.46-.552.828-1.012.828z" fill="#EDF4FF"/><path d="M61.331 24.962h-1.794c-.46 0-.736-.368-.598-.828l.46-1.794c.092-.46.552-.828 1.012-.828h1.794c.46 0 .736.368.598.828l-.46 1.794c-.092.46-.552.828-1.012.828z" fill="#BFD9FF"/><path d="M67.081 24.962h-1.794c-.46 0-.736-.368-.598-.828l.46-1.794c.092-.46.552-.828 1.012-.828h1.794c.46 0 .736.368.598.828l-.46 1.794c-.092.46-.552.828-1.012.828zM54.248 30.39h-1.794c-.46 0-.736-.369-.598-.829l.46-1.794c.092-.46.552-.828 1.012-.828h1.794c.46 0 .736.368.598.828l-.46 1.794c-.092.46-.552.828-1.012.828zm-1.472 5.75h-1.794c-.46 0-.736-.369-.598-.829l.46-1.794c.092-.46.552-.828 1.012-.828h1.794c.46 0 .736.368.598.828l-.46 1.794c-.092.46-.552.828-1.012.828zm7.221-5.75h-1.794c-.46 0-.736-.369-.598-.829l.46-1.794c.093-.46.553-.828 1.012-.828h1.794c.46 0 .736.368.598.828l-.46 1.794c-.092.46-.552.828-1.012.828z" fill="#EDF4FF"/><path d="M57.468 40.463h-1.794c-.46 0-.736-.368-.598-.828l.46-1.794c.092-.46.551-.828 1.011-.828h1.794c.46 0 .736.368.598.828l-.46 1.794c-.092.46-.551.828-1.011.828z" fill="#BFD9FF"/><path d="M85.894 9.138c-.046 0-.046 0 0 0h-.643c-5.336 0-10.764 4.278-12.19 9.614l-.046.276v.092l-.046.184c-1.196 5.382 2.3 9.706 7.866 9.476 5.06-.184 10.165-4.232 11.683-9.246 1.518-5.52-1.472-10.028-6.624-10.396zm3.68 10.166c-1.058 3.542-4.737 6.44-8.325 6.532-3.864.138-6.256-2.852-5.474-6.624l.092-.46c1.012-3.726 4.83-6.716 8.602-6.716.184 0 .368 0 .552.046 3.633.276 5.703 3.404 4.553 7.222z" fill="#EBEDFC"/><path d="M85.342 10.793c-.184.645.138 1.242.736 1.426 2.944.782 4.508 3.68 3.45 7.084-1.058 3.542-4.738 6.44-8.326 6.532-3.541.092-5.841-2.392-5.611-5.658.046-.69-.414-1.15-1.15-1.15-.874 0-1.794.828-1.84 1.702-.322 4.692 2.99 8.234 8.05 8.05 5.06-.184 10.165-4.232 11.683-9.246 1.472-4.83-.736-8.97-4.922-10.073-.782-.276-1.84.414-2.07 1.333z" fill="#A5C5FF"/><path d="M110.273 8.172s-.046 0 0 0h-.69c-5.428 0-10.902 4.37-12.236 9.798-1.334 5.428 1.932 9.797 7.36 9.797h.69c5.152-.367 10.212-4.553 11.546-9.705 0-.046 0-.046.046-.092 1.241-5.244-1.702-9.476-6.716-9.798zm-4.37 16.652h-.506c-3.818 0-6.118-3.082-5.198-6.9.92-3.818 4.83-6.9 8.648-6.9h.506c3.542.23 5.612 3.22 4.692 6.9 0 .046 0 .046-.046.092-.92 3.634-4.462 6.578-8.096 6.808z" fill="#fff"/><path d="M113.631 19.212c-1.196 2.76-3.956 4.968-6.854 5.474-.736.138-1.38.736-1.564 1.425-.23.92.414 1.61 1.38 1.426 4.14-.735 8.004-3.863 9.752-7.82.368-.873-.092-1.701-1.012-1.701-.69 0-1.426.506-1.702 1.196z" fill="#BFD9FF"/><path d="M84.238 42.67H65.977c-.092 0-.138-.091-.138-.183l.828-3.128c0-.046.092-.092.138-.092h18.261c.092 0 .138.092.138.184l-.828 3.128c0 .046-.046.092-.138.092z" fill="#EDF4FF"/><path d="M169.031 57.257c3.808-3.363 4.769-8.498 2.146-11.468-2.623-2.97-7.837-2.653-11.646.71-3.808 3.363-4.769 8.497-2.146 11.468 2.623 2.97 7.837 2.653 11.646-.71zm7.249 3.307c-.322 1.242-1.564 2.208-2.76 2.208-1.242 0-1.978-1.012-1.656-2.208.322-1.242 1.564-2.208 2.76-2.208 1.196 0 1.932 1.012 1.656 2.208z" fill="#F25B24"/><path d="M162.204 56.01c-.276 0-.506-.092-.644-.276l-2.115-2.806c-.276-.368-.138-1.012.368-1.426.506-.368 1.104-.368 1.426 0l1.563 2.07 5.612-4.462c.506-.367 1.104-.367 1.426 0 .276.368.138 1.012-.368 1.426l-6.532 5.152c-.23.184-.506.322-.736.322z" fill="#fff"/><path d="M25.665 180.418s.79-1.627 3.516-1.11c2.725.517 3.033 1.108 3.317 2.524.282 1.464 1.164 3.043 1.806 3.353.64.358 2.911 2.075 4.804 2.47 1.893.396 2.089 1.615 1.61 2.135-.434.521-7.641.794-9.212.505 0 0-5.38-.255-6.667-.729-1.194-.472.718-8.618.826-9.148z" fill="#2D2737"/><path d="M23.744 141.439s-.655-4.581 3.985-5.997c4.687-1.416 5.503.841 6.771 5.1 1.27 4.211-2.377 39.823-2.377 39.823s-5.365.813-6.686-.099c0 0-3.355-23.345-2.89-29.689.467-6.393 1.197-9.138 1.197-9.138z" fill="#2D1686"/><path d="M24.922 178.843s6.048-.356 7.961-.64l-.177 2.858s-4.805.733-7.716.21l-.068-2.428zm.843-126.566s-3.807.242-6.128 9.314c-2.322 9.071-3.807 20.131-2.972 22.993.836 2.862 9.936 10.624 13.325 10.624 3.39 0 3.621-2.668 2.971-4.85-.65-2.232-7.196-8.2-7.196-8.2s5.293-17.705 5.06-22.362c-.232-4.657-2.739-7.52-5.06-7.52z" fill="#4E33B5"/><path d="M73.492 49.56l-.65.048 1.44-2.91s3.62-.243 4.178 1.358l-1.672 3.832-3.296-2.328zm2.042-8.295s-.139-3.008.882-3.396c1.022-.388 2.136.34 2.136.34s1.671-.194 2.182.582c.51.776.464 1.843.464 1.843s.929.194 1.161 1.164c.232.922-.186 2.717-.186 2.717s-1.067 1.358-2.321 1.019c-1.207-.34-4.318-4.27-4.318-4.27z" fill="#FFAE73"/><path d="M73.631 43.642s-.371-3.93 0-4.415c.418-.533 4.55-6.5 4.55-6.5s.836 1.019.371 2.183c-.51 1.164-2.46 4.705-2.46 4.705v3.008s-1.254.922-2.46 1.019z" fill="#FFAE73"/><path d="M73.956 46.795s-.975-6.306-.325-7.18c.696-.873 3.992-.34 4.596-.097.65.243 2.368 2.62 2.6 3.542.232.921-1.393 4.268-2.414 4.996-.929.728-3.9-.048-4.457-1.261z" fill="#FFAE73"/><path d="M71.635 50.967l1.254-2.426s2.97-.533 4.457 1.892c.417.873.232.873.232.873l-.975 1.99-4.968-2.33z" fill="#DEE0E8"/><path d="M40.648 26.78s2.588.72 4.094 5.118c1.468 4.398.502 13.703-.502 14.802-1.004 1.1-3.978.677-8.11-.803-4.404-1.65-5.871-6.64-6.644-9.897-1.506-6.301 3.476-12.772 11.162-9.22z" fill="#FFAE73"/><path d="M31.301 50.93l2.124-8.29s4.21-1.353 6.875 1.734l.889 1.354v5.413c-.04 0-4.442.973-9.888-.211z" fill="#FFAE73"/><path d="M22.5 103.358s-1.904 11.594 0 24.885c1.61 24.484 5.611 16.999 9.093 16.999s4.557-13.021 5.16-17.678c.65-4.657 3.157-20.568-1.578-24.206-4.736-3.639-10.121-3.978-12.675 0z" fill="#2D1686"/><path d="M37.635 117.92s-4.335-9.786 2.295-14.522c6.63-4.736 11.698-4.116 13.366 3.481 1.669 7.597 2.304 33.835.139 39.148-9.488 9.946-9.799-3.582-15.8-28.107z" fill="#2D1686"/><path d="M45.746 27.161s1.236 1.776.502 3.849c-.733 2.072-3.514 2.876-3.514 2.876s.888 1.353 0 3.299l-.618 1.1s.888 2.199.618 2.748c-.232.55-1.12.423-1.12.423s-1.004-3.087-1.39-2.791c-.387.254-1.391 1.65-1.391 2.876s.386 2.2.116 3.003c-.232.803-4.133.803-5.755.55-1.622-.254-4.133-5.752-4.75-8.205 0 0-.889-3.426.386-6.302 0 0-.232-2.453 1.892-4.948 2.124-2.453 8.883-1.65 10.003-.677 0 0-.115-1.353 1.12-1.1 1.275.296 3.129 1.523 3.901 3.3z" fill="#232729"/><path d="M42 39.638s-.386-1.777-1.738-.973c-1.39.803.231 5.075 1.39 4.78 1.082-.255.58-3.13.348-3.807z" fill="#F99352"/><path d="M28.875 51.986s.697-2.62 1.347-2.814c.65-.243 8.45-1.116 12.72 1.552 1.904 1.553 1.672 2.668 1.672 2.668s-12.628-2.522-15.739-1.407z" fill="#fff"/><path d="M27.25 51.403s13.14-.873 22.425 3.299c4.225 2.232 13.928 12.225 13.928 12.225l7.614-16.59s4.272-1.602 5.99 2.619c0 0-4.83 19.598-8.822 25.759-2.553 2.231-17.097-7.306-17.097-7.306s-.617 7.067-.617 16.932c0 9.864 4.932 22.536 4.932 22.536s-10.977 1.666-20.76 1.895c-8.99-1.113-15.008-1.895-15.008-1.895s4.3-27.575 3.881-30.68c-.418-3.105-3.244-19.286-2.826-21.517.465-2.183 2.368-6.404 6.36-7.277z" fill="#4E33B5"/><path d="M42.705 181.035s.724-1.658 3.468-1.254c2.744.405 3.076.983 3.417 2.386.342 1.451 1.29 2.992 1.943 3.276.654.332 2.994 1.953 4.902 2.27 1.907.317 2.154 1.527 1.696 2.066-.412.539-7.602 1.109-9.183.885 0 0-5.386-.033-6.691-.454-1.259-.422.362-8.591.448-9.175z" fill="#3E3343"/><path d="M43.548 142.215s-.38-4.653 4.39-5.68c4.77-1.075 5.4 1.246 6.426 5.552 1.026 4.305-4.918 39.548-4.918 39.548s-5.38.403-6.693-.6c0 0-1.857-23.556-1.003-29.873.854-6.268 1.798-8.947 1.798-8.947z" fill="#2D1686"/><path d="M42.294 181.622s4.147 1.164 7.62.444l.295-2.526-8.037-.439.122 2.521z" fill="#4E33B5"/><path d="M76 39.033a.346.346 0 01-.187-.097.242.242 0 010-.34l1.3-1.212h.093c.047 0 .975 0 1.532.68.093.096.093.242-.046.339-.093.097-.232.048-.325-.049-.325-.388-.836-.485-1.068-.485l-1.16 1.116c-.047.048-.093.048-.14.048z" fill="#F99352"/><path d="M81.153 40.828h-.093c-.14-.049-.186-.194-.14-.34 0 0 .14-.436-.046-1.212-.14-.582-1.114-.97-1.578-1.116-.697.388-1.486.825-1.626.97-.046.049-.092.097-.185.097-.14 0-.232-.097-.232-.242 0-.194 0-.243 1.903-1.31l.093-.049h.093c.186.049 1.764.485 2.043 1.456.232.921.046 1.455.046 1.504-.093.194-.186.242-.278.242z" fill="#F99352"/><path d="M80.178 45.873h-.047c-.14 0-.232-.097-.232-.242 0-.146.093-.243.232-.243h.047c1.021 0 1.718-.825 1.857-.97.046-.194.325-1.116.325-2.038 0-.776-.465-1.26-.604-1.358-.975-.048-1.996-.097-2.135-.097-.14.049-.233-.048-.279-.145-.046-.146.046-.291.186-.34.046 0 .139-.048 2.321.097h.046l.047.049c.046.048.882.63.882 1.843-.046 1.116-.371 2.183-.371 2.231l-.047.049c-.046-.049-.836 1.164-2.228 1.164z" fill="#F99352"/><path d="M78.46 48.299c-.093 0-.14-.049-.186-.097-.093-.097-.046-.291.093-.34 1.114-.727 1.625-2.183 1.95-3.153.093-.243.14-.485.232-.63.279-.631.093-1.02.093-1.02-.046-.096-.046-.29.093-.339.093-.048.232-.048.325.097.046.049.325.582-.047 1.455-.046.146-.139.34-.232.583-.325 1.018-.882 2.57-2.135 3.395-.093.049-.14.049-.186.049z" fill="#F99352"/></symbol><symbol id="icon-speed"><path d="M112.214 125.539a21.813 21.813 0 019.619-3.288c1.581-.132 3.294-.132 4.546.855.263.197.527.526.461.855-.066.263-.263.394-.461.592-3.887 2.894-9.817 3.288-14.165.986zm.264-.263c2.174-1.71 4.348-3.42 6.193-5.459 1.845-2.039 3.36-4.472 3.887-7.169.197-.789.197-1.775-.33-2.433-4.941 3.88-8.828 8.879-9.75 15.061z" fill="#C8DBF4"/><path d="M112.28 125.539c.396-2.697.527-5.459-.131-8.155-.593-2.631-2.043-5.196-4.349-6.709-.856 1.973-.461 4.275.132 6.38a31.033 31.033 0 004.282 9.076m-4.809 8.09c2.965.329 5.534 1.907 7.708 3.88a14.747 14.747 0 014.414 7.564c-2.898-.198-5.336-2.237-7.115-4.473-1.779-2.302-3.03-4.801-5.007-6.971zm-1.054 1.381c2.372-5.854 1.515-12.891-2.174-17.955-1.713 5.985-1.054 12.693 2.174 17.955zm-6.391 7.629c2.701-.197 5.403.461 7.708 1.776 2.306 1.315 4.217 3.354 5.403 5.722.132.329.329.723.066 1.052-.198.263-.527.263-.857.263-2.569-.197-4.875-1.71-6.786-3.486-1.844-1.775-3.491-3.814-5.534-5.327zm.198-.46c1.384-4.407 1.45-9.208.264-13.68-.461-1.776-1.318-3.618-2.9-4.407-.13-.066-.329-.131-.46-.066-.132.066-.198.198-.264.329-.593 1.184-.725 2.565-.659 3.946.066 1.316.33 2.631.593 3.947.527 2.433.79 4.998 2.109 7.103.329.526.593 1.052.856 1.578.264.526.264.724.461 1.118m-16.932 2.697c1.252-4.801-.066-10.589-3.096-14.47-.198-.263-.527-.591-.857-.591-.527.065-.724.789-.658 1.315.131 4.933 1.778 9.734 4.611 13.746zm-1.581 1.052c-5.798 1.513-12.452.066-17.327-3.486 2.833-1.447 6.259-1.841 9.355-1.118 3.163.658 6.061 2.039 7.972 4.604zm-1.252-3.223c-3.228-5.261-9.487-8.747-15.68-9.076.725 2.499 2.767 4.472 5.14 5.656 2.37 1.184 4.94 1.71 7.51 2.171.988.263 2.371.46 3.03 1.249zm2.504-15.389c-.857-3.026-1.779-6.051-1.977-9.208-.263-3.157.198-6.38 1.845-9.076 3.03 5.853 3.36 12.759.264 18.547M72.62 122.58c-3.558-6.446-10.805-11.576-18.118-12.299 2.833 7.037 10.54 12.496 18.117 12.299zm2.24 1.315c-5.271.789-9.817 4.209-14.758 6.248-1.054.46-2.174.789-3.36.658-1.12-.132-2.24-.921-2.504-2.039-.197-.921.198-1.907.857-2.565.659-.658 1.515-1.118 2.437-1.447 5.403-2.236 11.2-2.302 16.866-.921" fill="#C8DBF4"/><path d="M77.956 127.578c-1.186.329-1.581.986-2.57 1.776a27.13 27.13 0 01-11.2 5.722c-.395.131-.988.131-1.185-.264-.198-.328.065-.723.263-1.052 1.713-2.17 4.15-3.617 6.786-4.604 2.57-.986 4.81-2.104 7.906-1.841m3.426-22.164c-4.283 4.012-10.41 6.051-16.273 5.524-.264 0-.527-.065-.725-.263-.395-.46.066-1.118.527-1.512 4.875-3.683 10.607-5.262 16.47-3.749z" fill="#C8DBF4"/><path d="M77.297 103.638c-5.666-4.275-13.506-5.525-20.292-3.354 2.57 2.499 6.127 3.88 9.685 4.209 3.558.329 7.115.066 10.607-.855zm1.647-10.26c.46-4.735.132-8.484.527-13.285 0-.395.132-.855.461-.987.527-.197.922.395 1.054.92 1.45 4.407.659 9.472-2.042 13.22" fill="#C8DBF4"/><path d="M79.273 93.904c-3.228-1.973-5.665-4.604-7.905-7.695-1.581-2.104-2.9-4.67-2.504-7.3 2.174-.066 4.282 1.184 5.666 2.828 1.45 1.644 2.24 3.749 2.899 5.853.659 2.105 1.12 4.275 1.844 6.314zm-7.773-2.17A63.644 63.644 0 0152.063 80.29c2.306-.921 5.007-.395 7.313.592 5.27 2.104 9.619 5.721 12.254 10.852m5.47 4.736c-3.558.394-7.248.657-10.805.065-3.492-.592-6.786-1.973-10.08-3.354-.264-.132-.593-.263-.66-.526-.131-.263 0-.658.264-.855a2.04 2.04 0 01.857-.395c3.557-.986 7.379-.526 10.87.658 3.492 1.184 6.39 2.565 9.553 4.406zm20.488 8.878c2.438-4.933 2.306-10.72.198-15.785-1.515 2.236-1.647 5.13-1.383 7.827.263 2.696 1.12 5.459 1.12 8.155m9.816-5.13c6.127-.131 12.254 2.5 16.405 6.972-3.031.46-6.193-.329-8.96-1.644-2.767-1.381-5.271-3.223-7.708-5.13m6.851-2.368c2.965-.263 5.864-.592 8.763.263 2.898.855 5.468 2.894 6.654 5.656-2.767.329-5.6-.394-8.17-1.513-2.569-1.249-4.941-2.828-7.247-4.406zm-9.75.065c2.701-1.775 5.468-3.551 8.564-4.274 3.163-.724 6.786-.198 8.96 2.17-2.503 1.513-5.6 1.644-8.564 1.644-2.965 0-6.523-.066-9.29.921" fill="#C8DBF4"/><path d="M104.177 98.442c4.612-4.538 6.325-12.627 4.48-18.744-3.558 5.459-5.205 12.233-4.48 18.744zM91.528 85.683c-.857-2.04-1.45-4.144-2.24-6.183-.79-2.038-1.713-4.077-3.229-5.722-1.449-1.644-3.491-2.828-5.665-2.96 1.383 6.183 5.468 11.774 11.068 14.865m2.372 2.631c1.449-1.973 3.096-4.67 5.007-6.117 1.976-1.447 4.479-2.367 6.851-1.775-2.372 4.34-6.917 7.366-11.858 7.892zm-.462-2.434c.922-2.367 1.91-4.8 2.24-7.366.395-2.565.132-5.261-1.12-7.432-2.503 4.736-3.36 9.866-1.252 14.864m-1.712-14.864c-1.45-4.735-5.732-8.221-10.41-9.8-.593-.197-1.186-.394-1.844-.263-.593.066-1.252.527-1.318 1.119-.198.789.527 1.512 1.12 2.038a35.607 35.607 0 0012.452 6.906zm-.066-3.88c-.198-3.026-.396-6.117-1.384-9.01-.988-2.895-2.899-5.591-5.666-6.84-.461 3.09.857 6.116 2.504 8.747 1.647 2.63 3.623 5.13 4.612 8.09m-.001 1.117c1.186-3.42 1.318-7.826 3.36-10.786 1.45-2.105 3.756-3.552 5.007-5.722.857 2.105.593 4.472-.263 6.511-.857 2.04-2.306 3.815-3.821 5.46-1.516 1.578-2.833 2.827-4.283 4.537z" fill="#C8DBF4"/><path d="M91.527 170.657c.066 0 .198-22.954.198-51.3 0-28.347-.066-51.3-.132-51.3s-.198 22.953-.198 51.3c-.065 28.346.066 51.3.132 51.3z" fill="#C8DBF4"/><path d="M71.434 101.862s.329.132.856.329c.593.197 1.45.46 2.372.789a121.25 121.25 0 017.774 2.894c2.965 1.25 5.732 2.302 7.313 3.683.79.658 1.252 1.381 1.45 1.973.197.526.263.855.329.855v-.263c0-.131-.066-.395-.198-.658-.198-.592-.659-1.381-1.45-2.104-.79-.724-1.91-1.381-3.162-1.973-1.252-.592-2.7-1.184-4.216-1.842-3.03-1.249-5.798-2.17-7.774-2.828-.988-.329-1.845-.526-2.438-.723a13.075 13.075 0 01-.856-.132z" fill="#C8DBF4"/><path d="M64.845 85.749l.264.263c.198.197.461.394.725.723.658.592 1.647 1.447 2.767 2.5 2.371 2.104 5.6 4.998 9.157 8.155 3.558 3.157 6.654 6.248 8.828 8.484 1.055 1.118 1.91 2.105 2.504 2.762.263.329.461.526.659.79a.792.792 0 00.263.263s-.066-.132-.197-.263a11.92 11.92 0 00-.593-.79c-.527-.657-1.384-1.644-2.438-2.828-2.108-2.302-5.205-5.393-8.762-8.616-3.624-3.156-6.852-6.05-9.224-8.09-1.186-.986-2.108-1.84-2.833-2.433-.33-.263-.593-.46-.79-.657-.198-.263-.33-.33-.33-.263z" fill="#C8DBF4"/><path d="M81.58 100.547c.065-.066-.66-1.776-1.384-3.946-.725-2.17-1.12-4.012-1.186-4.012-.066 0 .132 1.907.856 4.077.396 1.118.79 2.04 1.12 2.763.33.723.593 1.118.593 1.118zm9.947 13.877s.198-.197.527-.658c.396-.46.857-1.118 1.384-1.775 1.186-1.513 2.833-3.618 4.677-5.985 1.845-2.302 3.558-4.407 4.744-5.92.593-.723 1.054-1.315 1.449-1.775.33-.395.527-.658.527-.658l-.593.592a24.52 24.52 0 00-1.515 1.71 150.03 150.03 0 00-4.81 5.853c-1.844 2.302-3.425 4.473-4.611 6.051a42.927 42.927 0 00-1.318 1.842c-.329.46-.527.723-.46.723z" fill="#C8DBF4"/><path d="M95.876 108.768c.066.066 1.251-1.316 1.844-3.42.462-1.513.462-2.828.396-3.486h-.132c.066.263.132.395.132.395v-.395h-.132c-.066.592-.132 1.907-.593 3.354-.527 2.105-1.581 3.552-1.515 3.552zm5.731-7.103c.066.066.396-.461 1.318-.724.857-.329 2.174-.394 3.558-.263 1.449.132 2.701.329 3.623.592.923.197 1.45.395 1.515.329 0-.066-.527-.263-1.449-.592-.922-.263-2.174-.592-3.623-.658-1.45-.131-2.833 0-3.69.395-.988.329-1.317.921-1.252.921zm1.318-1.775c0 .065.725-.33 1.976-.724 1.252-.395 2.965-.855 4.942-.987 1.976-.131 3.755 0 5.007.263 1.251.198 2.042.46 2.042.395 0 0-.198-.132-.527-.197-.33-.132-.857-.263-1.515-.395-1.252-.263-3.097-.526-5.073-.329-1.977.132-3.756.658-5.007 1.118-.593.263-1.12.46-1.384.658a3.754 3.754 0 01-.461.197zm-11.397-7.301c.065 0 .724-2.236 1.449-4.999.725-2.762 1.186-5.064 1.12-5.064-.066 0-.725 2.236-1.45 4.999-.658 2.762-1.185 5.064-1.12 5.064z" fill="#C8DBF4"/><path d="M91.462 92.588c.131 0 .527-1.447 1.58-2.96 1.055-1.578 2.373-2.367 2.373-2.433 0-.065-.396.132-.923.46-.527.33-1.186.987-1.713 1.776-1.12 1.579-1.383 3.157-1.317 3.157zm.065 65.836c.066 0 .132-.526.395-1.513.264-.986.725-2.367 1.516-3.946 1.58-3.223 4.48-7.366 8.169-11.444 1.845-2.104 3.558-4.012 5.073-5.919 1.515-1.842 2.767-3.683 3.624-5.262.922-1.578 1.515-2.959 1.844-3.88.198-.46.264-.855.33-1.118.066-.263.131-.395.066-.395 0 0-.198.527-.593 1.447a33.87 33.87 0 01-1.911 3.815c-.922 1.578-2.174 3.288-3.689 5.13-1.516 1.841-3.294 3.815-5.073 5.853-3.69 4.144-6.589 8.287-8.104 11.576-.79 1.644-1.252 3.025-1.45 4.078-.13.526-.197.855-.197 1.183v.395zm-18.183-20.52s.33.197.922.526c.593.329 1.45.855 2.438 1.644.988.79 2.108 1.776 3.228 2.96a58.542 58.542 0 013.492 4.078c2.371 3.025 4.611 5.656 5.995 7.76.659 1.053 1.186 1.908 1.515 2.565.33.592.527.987.527.987s0-.066-.066-.263c-.065-.197-.197-.395-.329-.724-.264-.657-.725-1.578-1.383-2.63-1.318-2.171-3.492-4.867-5.93-7.827-1.186-1.513-2.372-2.894-3.558-4.078a40.413 40.413 0 00-3.294-2.959c-1.054-.724-1.91-1.25-2.569-1.579-.33-.131-.593-.263-.725-.329l-.263-.131z" fill="#C8DBF4"/><path d="M73.015 144.547c0 .065.79.131 2.042.263 1.252.131 2.965.394 4.744.92 1.779.592 3.294 1.447 4.282 2.237.988.789 1.45 1.381 1.515 1.381 0 0-.066-.197-.33-.461-.197-.263-.592-.657-1.053-1.052-.988-.855-2.438-1.776-4.348-2.368-1.845-.592-3.624-.723-4.876-.855-1.186-.065-1.976-.065-1.976-.065z" fill="#C8DBF4"/><path d="M84.94 148.624c.131-.066-.791-1.447-1.516-3.288-.659-1.908-.79-3.552-.922-3.486-.066 0-.066.395.066 1.052.065.658.263 1.579.593 2.565a8.24 8.24 0 001.185 2.302c.33.592.593.921.593.855zM67.48 120.08s.132.066.33.198c.263.131.593.263.922.46.396.197.923.395 1.516.723a17.89 17.89 0 011.91.987c.33.197.725.395 1.12.592.395.197.725.46 1.186.723.79.461 1.647 1.118 2.504 1.71 1.712 1.25 3.491 2.828 5.204 4.538 1.713 1.776 3.163 3.618 4.414 5.328.593.855 1.186 1.71 1.647 2.565.264.394.462.789.66 1.184.197.394.394.789.592 1.118.395.723.659 1.381.922 1.973.264.592.462 1.052.66 1.513.131.394.263.723.395.986a2.8 2.8 0 00.131.329s0-.132-.066-.329c-.065-.263-.197-.592-.329-.986-.132-.461-.33-.921-.593-1.513-.263-.592-.527-1.25-.922-1.973-.198-.395-.396-.724-.593-1.118-.198-.395-.461-.79-.659-1.184-.461-.855-1.054-1.644-1.581-2.565-1.252-1.776-2.701-3.618-4.414-5.393-1.713-1.776-3.558-3.289-5.27-4.538a176.13 176.13 0 00-2.504-1.71c-.396-.263-.79-.527-1.186-.724-.395-.197-.79-.394-1.12-.592a27.742 27.742 0 00-1.977-.986c-.593-.263-1.12-.461-1.515-.658a7.677 7.677 0 01-.988-.395c-.264-.197-.395-.263-.395-.263z" fill="#C8DBF4"/><path d="M81.843 129.683s-.132-.592-.79-1.184c-.66-.592-1.845-1.184-3.163-1.25-1.383-.066-2.57.329-3.36.658s-1.252.592-1.252.592c0 .066.527-.132 1.318-.395.79-.263 1.976-.592 3.294-.526 1.318.066 2.372.526 3.03 1.052.66.592.857 1.118.923 1.053zm2.174 2.236c.066-.066-.725-1.25-.922-2.96-.198-1.71.329-3.025.197-3.091-.066 0-.198.329-.395.855-.132.526-.264 1.381-.132 2.236.132.855.395 1.645.659 2.171.33.526.527.789.593.789zm23.388 29.793c-.527 8.747-3.162 17.692-7.247 26.703H82.436c-3.888-8.945-6.325-17.824-6.786-26.703h31.755z" fill="#C8DBF4"/><path d="M78.549 175.853c0 .065 5.863.197 13.044.197s13.045-.066 13.045-.197c0-.066-5.864-.198-13.045-.198-7.18.066-13.044.132-13.044.198zm.395 3.222c0 .066 5.468.198 12.188.198 6.72 0 12.188-.066 12.188-.198 0-.066-5.468-.197-12.188-.197-6.72 0-12.188.066-12.188.197zm20.95-11.641c-.065 0-.197 1.842-.197 4.078s.066 4.078.197 4.078c.066 0 .198-1.842.198-4.078s-.066-4.078-.198-4.078z" fill="#FAFAFA"/><path d="M90.407 167.434c-.066 0-.197 1.908-.197 4.21 0 2.301.066 4.209.197 4.209.066 0 .198-1.908.198-4.209 0-2.302-.132-4.21-.198-4.21zm-8.894-.065c-.066 0-.197 1.907-.197 4.275 0 2.367.066 4.275.197 4.275.066 0 .198-1.908.198-4.275-.066-2.368-.132-4.275-.198-4.275z" fill="#FAFAFA"/><path d="M76.243 167.434c0 .066 6.851.198 15.284.198s15.285-.066 15.285-.198c0-.131-6.852-.197-15.285-.197-8.433.066-15.284.131-15.284.197z" fill="#FAFAFA"/><path d="M113.733 179.372s-1.937 2.808-4.68 3.422c-2.743.613-5.421 1.581-5.454 3.227-.032 1.679 7.907 2.647 11.037.968 4.68-2.485 5.164-1.742 5.68-3.001s-.613-4.583-.581-5.003c.032-.452-6.002.387-6.002.387z" fill="#1C143F"/><path d="M114.056 177.985s-.355 1.355-.291 1.388c.065.032 6.164.742 5.97-.356-.161-.871-.355-1.839-.355-1.839l-5.324.807z" fill="#81807E"/><path d="M134.322 179.179s-1.388 2.679-3.776 3.615c-2.549.968-4.582 2.098-4.518 3.711.032 1.614 6.229 3.26 10.714.162 2.84-1.969 3.744-1.969 4.195-3.195.452-1.227-.774-4.455-.774-4.842 0-.484-5.841.549-5.841.549z" fill="#1C143F"/><path d="M134.257 177.791s.033 1.355.065 1.388c.064.032 5.97.484 5.809-.581-.129-.839-.581-1.872-.581-1.872l-5.293 1.065z" fill="#81807E"/><path d="M112.571 95.713s-5.486 23.304-6.745 30.404c-1.065 6.036-1.904 12.33-1.42 16.687.646 5.39 8.584 33.405 8.229 34.987-.322 1.581 8.326.258 8.326.258s-6.034-31.211-4.84-37.02c.903-4.293 8.713-32.889 9.939-31.437 1.194 1.452 2.679 26.983 3.582 31.211.904 4.228 3.615 37.698 3.615 37.698s6.099.871 7.713-.452c0 0 .742-28.564.161-36.504-.226-3.034 3.679-36.278-1.323-49.672-2.582-7.101-27.237 3.84-27.237 3.84z" fill="#2D1686"/><path d="M146.133 46.17l-11.682-4.647-10.004.806-2.066.904-12.101 6.036 3.162 22.206c1.065 3.97-.839 11.716-1.032 15.815-.162 3.26.935 4.744.968 4.776l26.043-3.518s1.161-7.875 1.258-12.135l5.454-30.243z" fill="#fff"/><path d="M113.345 92.099s-.613.677-.774 3.614c0 0 24.655-2.775 27.269-3.873 0 0 .097-3.227-.452-3.292-.581-.064-26.043 3.55-26.043 3.55z" fill="#273037"/><path d="M133.773 89.13s.549 3.26.581 4.13l1.129-.225s-.322-3.454-.484-4.035l-1.226.13zm-18.362 2.581s-.42 2.97-.452 4.1l1.194-.162s.258-3.712.387-4.1l-1.129.162z" fill="#2D1686"/><path d="M134.386 40.715c-.064 3.712-7.583 5.778-7.583 5.778s-3.131-3.776-2.388-4.131c.29-.13.419-.71.451-1.356.033-.613 0-1.259-.032-1.678-.032-.259-.032-.42-.032-.42s1.065-1.097 2.42-2.388c2.388-2.26 5.648-5.165 5.648-4.003 0 .065 0 .13-.033.226-.548 2.55 1.549 7.972 1.549 7.972z" fill="#FFAE73"/><path d="M131.514 35.261c0 .032-.322.484-.871 1.13-1.162 1.388-3.324 3.68-5.744 4.615.032-.613 0-1.259-.033-1.678-.258 0-.484-.033-.742-.097.678-1.13 1.646-2.292 1.646-2.292l1.517-.42 4.227-1.258z" fill="#D79573"/><path d="M132.934 32.55c-.645 1.355-1.258 2.356-1.452 2.743-.129.258-.42.678-.871 1.13-1.227 1.291-3.518 2.97-5.777 2.905-.258 0-.484-.033-.742-.097-.904-.194-2.001-.613-2.582-1.71-4.679-8.812-1.291-16.01-1.291-16.01s12.78-3.485 14.781.226c1.419 2.583-.517 7.618-2.066 10.813z" fill="#FFAE73"/><path d="M120.219 21.512s-1.194-.065-1.484-2.227c-.291-2.13.29-2.744.29-2.744s5.293-2.13 7.164-2.388c1.904-.29 6.551-.55 7.649.645 0 0 2.646-.58 3.388 3.647 1.162 6.746-3.905 13.266-3.905 13.266s.033-4.39-.968-4.97c-1-.582-1.872.806-1.872.806l-2.065.355s3.13-6.52-.613-6.746c-3.744-.258-5.422.71-7.584.356z" fill="#232729"/><path d="M130.546 25.772c.194-1.937 3.84-2.679 3.582-.646-.258 2.034-2.033 3.97-2.872 3.906-.807-.065-.839-1.776-.71-3.26z" fill="#EEA886"/><path d="M155.815 75.186v-.129c-.065-2.84-1.517-14.17-3.97-21.69-1.194-3.646-1.452-6.196-1.904-6.519-.807-.549-7.874-2.55-10.843-3.68-1.355-.516-1.291-.484-1.839-.677-.323.322-1.904 2.13-3.324 4.099-3.098 4.228-7.132 11.103-6.519 17.429.194 2.033.452 4.938.839 8.23.032.29.064.549.097.84.097.742.193 1.516.322 2.29.065.453.162.937.226 1.42.807 4.907 3.389 8.263 5.68 12.266.032.032.032.064.065.097 0 .032.032.032.032.064.032.097.097.162.129.258.065.13.161.29.226.42.032.097.097.161.129.258.452.807.871 1.646 1.291 2.453.258.549.516 1.065.774 1.614.033.064.065.097.065.161 0 0 .419.936.968 2.13.194.452.42.936.613 1.388.162.323.291.678.452 1 .129.291.258.55.355.808.258.581.484 1.097.645 1.452.129.258.194.452.226.517a242.478 242.478 0 011.614 4.034c.097.258.161.42.161.42l7.874-4.196c1.485-.71.71-4.616.162-6.133-.452-1.258-1.13-2.614-1.872-4.002a44.95 44.95 0 00-.936-1.743c2.485-4.163 4.97-8.424 6.551-11.36 1.065-1.905 1.711-3.196 1.711-3.519zM143.261 63.31c0-.033 0-.033 0 0 0-.033 0-.065.032-.065v-.097s3.841 5.778 3.55 10.78c-.032.775-.839 2.744-2.033 5.294-.419.936-.903 1.904-1.42 2.969-.032-.032-.032-.097-.064-.13-.743-1.71-1.227-3.356-1.227-4.744.065-.032.388-11.038 1.162-14.007zm-59.799 3.517l17.879 3.744 8.519-21.431c.194-.13 2.647-1.42 4.26-2.163 1.678-.774 3.808-1.71 5.712-2.55.904-.387 1.743-.774 2.485-1.097l.065.032s-1.065 3.39-2.421 11.813c-.032.29-.097.581-.129.872 0 .032 0 .064-.032.096l-.097.581v.065c-.032.13-.032.258-.064.42-.065.322-.097.677-.162 1.032-.613 4.1-1.452 11.103-2.291 18.14-.646 5.55-2.13 11.264-2.582 15.524-.097.84-.323 1.937-.613 3.195-.032.13-.065.29-.097.42-1.323 5.39-3.872 12.975-3.872 12.975l-.743-.678-2.226-1.969c-.517-.452-.71-1.162-.484-1.775 1.226-3.809 5.389-17.3 6.163-26.789.226-2.97-.677-5.777-1.194-8.456 0 .032-.032.032-.032.064-.452 1.162-.936 2.453-1.42 3.712-1.323 3.357-2.678 6.455-3.227 6.649-1.258.452-24.784-5.745-24.946-6.649l1.55-5.777z" fill="#4E33B5"/><path d="M135.161 51.69l-3.647 1.968 1.549 1.517-4.163 21.56c-.839-5.067-1.226-9.844-1.516-12.78-.969-9.78 9.197-20.85 9.842-21.529a40.57 40.57 0 001.549.581l-3.614 8.682zm-12.78-8.425s-1.355 4.293-2.936 14.976c-.613 4.1-1.453 11.103-2.292 18.14l-.839-20.205 1.743-1.808-1.549-1.872 3.292-8.133c.903-.388 1.742-.775 2.485-1.098h.096z" fill="#4E33B5"/><path d="M137.42 42.49l-3.033-1.774s-.097 1.581-7.584 5.777l2.13 5.777 8.487-9.78z" fill="#fff"/><path d="M124.834 41.523s.129 1.71 2.001 4.97l-4.163 5.197-.291-8.424 2.453-1.743z" fill="#fff"/><path d="M126.835 46.493s.807 3.098.517 3.97c0 0-1.775.613-3.034-.162 0 0 .904-2.162 2.517-3.808z" fill="#E34208"/><path d="M125.835 90.162s-3.615.42-4.841.71l.161 3.906 4.744-.485-.064-4.13z" fill="#69737A"/><path d="M125.028 50.011s-4.034 9.844-3.389 20.85c.678 11.426 1.807 15.557 1.807 15.557l2.485 3.002 1.098-3.712s-3.357-14.556-1.194-28.725c.387-2.582.968-7.424.968-7.424l-1.775.452z" fill="#F25B24"/><path d="M137.194 96.488s-.871 1.678-1.743 1.937c-.871.29-2.13 1.646-2.13 1.646l6.132 3.098s1.613-3.066 1.71-5.002c.065-1.937-3.969-1.679-3.969-1.679z" fill="#EEA886"/><path d="M136.613 96.65l-.419.774s3.872 2.743 4.937 2.905l.355-1.033-4.873-2.647z" fill="#DECBC4"/><path d="M136.194 96.682s2.904 2.324 5.357 3.389l8.261-14.298-4.26-7.94s-9.165 17.461-9.358 18.849zM111.571 63.89c-.129 2.646-.129 5.002-.129 5.002v.194c0-.032 0-.097-.033-.13-.451 1.163-.935 2.454-1.42 3.713-.129-1.453-.129-2.776-.096-4.035.193-7.423 2.614-11.296 2.614-11.296-.549 1.29-.807 4.034-.936 6.552zm36.95 27.886l-6.583 7.681 5.647-9.424c.323.58.646 1.162.936 1.743z" fill="#4E33B5"/><path d="M100.566 82.158H85.302c-1.033 0-1.969-.678-2.195-1.679l-6.615-26.304c-.355-1.388.742-2.68 2.194-2.68h15.265c1.032 0 1.968.678 2.194 1.68l6.616 26.336c.355 1.323-.743 2.647-2.195 2.647z" fill="#F25B24"/><path d="M81.913 74.831c.742-.678 2.195-1.065 3.42-1.84 1.227-.807.195-1.614.195-1.614 1.258-.42 1.129-.968.968-1.355-.226-.517-1.614-.355-1.614-.355s1.226-.258 1.743-.484c.516-.226.323-1.065-.452-1.356-.775-.258-3.97.484-3.97.484s.517-.258 2.098-1c1.581-.775 1.936-1.453 1-1.775-.645-.226-1.903.258-4.356 1.84-1.84 1.194-1.678 1.355-1.678 1.355s1.743 6.907 2.646 6.1z" fill="#FFAE73"/><path d="M60.54 25.94l-35.088 8.607 20.225 6.637L60.54 25.941z" fill="#9DB6FE"/><path d="M24.47 35.544l5.54 22.6 32.892-8.064c2.488-.614 3.98-3.266 3.326-5.923l-4.36-17.781-15.847 16.24-21.551-7.072z" fill="#9DB6FE"/><path d="M54.246 27.483c.028.312.08.62.156.935a6.1 6.1 0 001.275 2.518l4.864-4.995-6.295 1.542zM61.9 32.97a6.393 6.393 0 001.445-.546l-1.476-6.037-5.294 5.431A6.252 6.252 0 0061.9 32.97z" fill="#9C4D30"/><path d="M70.054 28.572A8.942 8.942 0 1055.501 18.18a8.942 8.942 0 0014.553 10.392z" fill="#F25B24"/><path d="M65.421 27.895l-2.05.46-1.529-6.734-1.283.298-.46-2.05 3.317-.756 2.005 8.782z" fill="#fff"/></symbol><symbol id="icon-test"><path fill-rule="evenodd" clip-rule="evenodd" d="M18.466 0C8.078 0 0 8.409 0 18.63c0 4.288 1.484 8.575 4.287 11.873L5.44 31.82l2.144-2.141-.824-1.156c-2.308-2.804-3.463-6.266-3.463-9.893 0-8.574 6.926-15.5 15.5-15.5 8.572 0 15.498 6.926 15.498 15.5 0 3.627-1.32 7.089-3.465 9.893l-.821 1.156 2.143 2.141 1.154-1.317c2.308-3.463 3.79-7.585 3.79-11.873C37.096 8.408 28.854 0 18.466 0zm6.76 10.387L14.839 18.63l3.627 3.627L26.71 11.87l-1.484-1.483z" fill="#fff"/><path fill-rule="evenodd" clip-rule="evenodd" d="M52.357 3.021V7.31h8.412v22.093h4.614V7.31h8.41V3.02H52.357zm26.218 0v26.382H98.36V25.28H83.192v-7.09h13.19v-4.12h-13.19V7.144h15.003V3.02h-19.62zm33.8 0c-5.278 0-9.07 3.134-9.07 7.586 0 4.946 3.133 6.594 8.74 7.913 4.946.99 5.936 2.143 5.936 3.957 0 1.98-1.814 3.3-4.617 3.3-3.298 0-5.935-1.32-8.409-3.464l-2.803 3.297c3.132 2.804 6.926 4.123 11.212 4.453 5.441 0 9.397-2.968 9.397-7.914 0-4.453-2.801-6.433-8.407-7.752-5.111-1.154-6.266-2.142-6.266-4.12 0-1.814 1.649-3.133 4.287-3.133 2.308 0 4.781.824 7.089 2.639l2.474-3.463c-2.638-2.143-5.771-3.299-9.563-3.299zm13.19 0V7.31h8.409v22.093h4.617V7.31H147V3.02h-21.435z" fill="#F25B24"/></symbol><symbol id="icon-time"><path d="M148.384 50.14c-.318-5.645-9.635-5.888-9.635-5.888s-8.058 8.06-9.876 7.906c-1.818-.153 5.555-8.238 5.555-8.238-3.369-1.06-13.004 1.316-13.004 1.316s-1.741 11.022-3.47 10.422c-1.728-.6 2.034-9.682 2.034-9.682-3.534.294-7.449 3.538-7.449 3.538-5.211 5.518 2.11 11.956 2.11 11.956s-.686 3.806-3.927 7.65c0 0-.699.69-1.513 1.942l.903.192a7.93 7.93 0 01.394-.652v-.013c.089-.127.228-.306.381-.523.394-.486.661-.843.839-1.111 1.195-1.533 2.847-3.5 3.75-3.807 0 0-.077-.166-.102-.46.038.141.063.294.102.46.851 3.666 8.49 5.876 12.99 5.901 4.512.026 2.885-1.596.979-4.074-1.907-2.478-6.889-2.989-8.173-4.075-1.271-1.085.991-1.417 3.826-.587 2.834.83 3.66 4.036 8.224 5.466 4.563 1.431 9.952-6.603 9.952-6.603-3.419.32-8.808-2.682-8.796-3.845.013-1.162 8.517.767 9.915.716 1.411-.077 4.309-2.261 3.991-7.907z" fill="#DAEBFD"/><path opacity=".5" d="M92.15 49.307s5.619-20.232 18.012-30.91c1.652-1.418 4.156.038 3.788 2.184 0 .038-.013.076-.026.115-.699 3.653-14.846 17.345-21.774 28.61z" fill="#A2CDFC"/><path opacity=".5" d="M89.965 55.016s14.426-24.14 34.065-32.775c1.195-.523 2.631-.05 3.203 1.137.369.766.419 1.89-.381 3.513-2.11 4.317-24.405 16.477-36.887 28.125zm29.524 82.709s21.901-11.036 25.866-7.191c3.954 3.844-25.866 7.191-25.866 7.191zm-3.559 1.328s29.324-2.593 29.781 3.551c.458 6.131-29.781-3.551-29.781-3.551z" fill="#A2CDFC"/><path d="M25.118 13.937c5.51-10.858 24.087-3.233 24.087-3.233s8.937 22.886 12.647 24.17c3.724 1.272-3.83-21.072-3.83-21.072 7.551.83 24.502 13.873 24.502 13.873s-6.09 23.256-2.174 23.564c3.913.32 4.348-20.868 4.348-20.868 6.707 3.658 11.65 13.436 11.65 13.436 5.508 15.415-14.487 21.75-14.487 21.75s-1.934 8.1 1.123 18.499c0 0 .772 1.957 1.313 5.133l-1.956-.412a19.144 19.144 0 00-.217-1.638l.002-.012c.002-.013.002-.013-.009-.027-.076-.336-.17-.803-.297-1.38-.349-1.295-.572-2.248-.696-2.928-1.021-4.052-2.597-9.395-4.107-10.758 0 0 .287-.266.604-.81-.194.254-.393.533-.604.81-4.835 6.503-21.795 4.202-30.71.351-8.915-3.863-4.307-5.657 1.608-8.887 5.915-3.23 16.176.083 19.621-.95 3.458-1.033-.735-3.66-7.041-4.474-6.307-.814-10.702 4.776-20.934 3.64-10.22-1.134-13.917-21.667-13.917-21.667 6.47 3.607 19.68 2.355 20.66.053.981-2.302-17.447-5.895-20.16-7.215-2.707-1.28-6.523-8.089-1.026-18.948zm123.821 82.787c-1.856-6.91-13.461-4.752-13.461-4.752s-7.88 12.084-10.168 12.377c-2.288.294 4.728-11.661 4.728-11.661-4.436-.434-15.749 5.032-15.749 5.032s.712 14.101-1.576 13.82c-2.288-.293 0-12.517 0-12.517-4.296 1.29-8.3 6.335-8.3 6.335-5.02 8.2 5.72 14.242 5.72 14.242s.14 4.892-2.86 10.499c0 0-.674 1.035-1.373 2.797h1.17c.101-.319.203-.625.317-.919v-.013c.077-.179.191-.434.344-.754.355-.702.597-1.226.749-1.596 1.068-2.21 2.619-5.084 3.649-5.697 0 0-.128-.179-.255-.536.077.166.166.357.255.536 2.008 4.317 12.024 5.033 17.617 3.883 5.58-1.149 3.152-2.733.14-5.301-3.013-2.567-9.305-1.89-11.173-2.899-1.856-1.009.864-2.018 4.588-1.724 3.725.293 5.58 4.023 11.605 4.611 6.013.574 10.601-10.793 10.601-10.793-4.156 1.29-11.605-1.009-11.884-2.453-.293-1.443 10.74-1.29 12.456-1.724 1.716-.434 4.716-3.883 2.86-10.793z" fill="#DAEBFD"/><path d="M27.505 101.245c4.131-7.855 17.58-2.069 17.58-2.069s6.266 16.783 8.96 17.767c2.695.971-2.567-15.404-2.567-15.404 5.491.69 17.706 10.41 17.706 10.41s-4.69 16.873-1.83 17.154c2.847.281 3.394-15.162 3.394-15.162 4.855 2.747 8.338 9.938 8.338 9.938 3.852 11.304-10.791 15.685-10.791 15.685s-1.5 5.888.623 13.5c0 0 .546 1.444.902 3.756l-1.424-.32a11.712 11.712 0 00-.14-1.188v-.025c-.05-.243-.114-.588-.203-1.009a31.051 31.051 0 01-.483-2.146c-.699-2.963-1.792-6.872-2.872-7.894 0 0 .203-.191.444-.587-.14.191-.292.383-.444.587-3.598 4.675-15.927 2.81-22.384-.114-6.445-2.925-3.076-4.177 1.258-6.464 4.334-2.286 11.783.256 14.312-.459 2.53-.716-.495-2.67-5.084-3.347-4.589-.664-7.855 3.347-15.291 2.401-7.436-.945-9.902-15.966-9.902-15.966 4.678 2.708 14.313 1.955 15.05.294.737-1.66-12.647-4.509-14.618-5.492-1.957-.984-4.665-5.991-.534-13.846z" fill="#C5E0FB"/><path d="M20.724 165.552c-2.186-4.751 5.326-9.005 5.326-9.005s10.067 3.066 11.478 2.146c1.424-.92-8.097-4.304-8.097-4.304 2.288-2.338 11.186-4.599 11.186-4.599s6.177 8.252 7.334 7c1.157-1.239-5.847-7.025-5.847-7.025 3.013-1.303 7.614-.371 7.614-.371 6.635 2.236 3.445 10.691 3.445 10.691s2.199 2.81 6.508 4.547c0 0 .864.256 2.071.92l-.66.549c-.204-.127-.407-.255-.61-.357h-.013c-.128-.064-.318-.154-.547-.269-.534-.23-.902-.408-1.17-.536-1.626-.728-3.838-1.622-4.702-1.469 0 0-.013-.166-.115-.421.038.127.077.268.115.421.89 3.372-4.398 8.494-8.06 10.487-3.672 1.992-3.037-.052-2.554-2.913.483-2.861 4.334-5.454 4.906-6.897.572-1.443-1.423-.728-3.38 1.188-1.958 1.916-1.246 4.892-4.36 8.047-3.102 3.155-10.983-1.06-10.983-1.06 2.936-1.227 6.038-6.029 5.53-6.974-.509-.946-6.623 4.342-7.792 4.904-1.144.562-4.436.051-6.623-4.7z" fill="#D3E8FA"/><path d="M86.099 111.2a1.627 1.627 0 00.022 1.935c.046.058.07.104.092.15 7.958 4.805 31.819 24.231 31.819 37.931v28.367h-72.02v-28.379c0-13.78 24.183-33.517 31.968-38.069.253-.345.333-.691.333-.979 0-.588-.333-.991-.333-.991-7.797-4.643-31.967-24.242-31.967-38.023V44.775h72.008v28.379c0 13.769-24.103 33.46-31.922 38.046z" fill="#9FD4FF"/><path d="M122.159 186.9H41.311v-7.109c0-.115.092-.208.206-.208h80.459c.103 0 .195.093.195.196v7.121h-.012z" fill="#E34208"/><path d="M66.629 152.967c-.367 6.349.837 20.049.722 26.628H46.013v-28.379c0-13.78 24.182-33.518 31.967-38.069a1.64 1.64 0 00.333-.979c0-.588-.333-.991-.333-.991-7.797-4.644-31.967-24.243-31.967-38.023V44.775h14.275l10.194 2.8v22.433s-1.01 6.464 1.513 12.813c2.523 6.349 7.946 26.708 7.866 29.358-.08 2.65-12.602 29.9-13.232 40.788z" fill="#93C8FD"/><path d="M108.698 63.637c-4.369.069-11.868.853-24.01 3.94-8.313 2.109-22.646.519-30.225-.576-2.66-.38-5.034 1.694-5.034 4.39v3.272c0 9.01 24.125 28.529 30.5 33.53a4.03 4.03 0 011.537 3.157v50.098a5.238 5.238 0 01-2.236 4.286c-5.023 3.526-13.473 13.85-13.473 13.85h31.98s-8.578-9.967-13.393-13.666a4.454 4.454 0 01-1.743-3.537v-51.054a4.03 4.03 0 011.502-3.146c6.237-5.035 29.846-24.622 29.846-33.621v-5.715c0-2.915-2.373-5.254-5.251-5.208z" fill="#F8E6E0"/><path d="M121.953 47.575H41.506a.202.202 0 01-.195-.196v-7.11h80.849v7.11c0 .115-.092.196-.207.196z" fill="#E34208"/><path d="M151.921 88.481s3.53.398 6.263.235c3.421-.199 7.621-.29 8.418.616.778.905.778.905-.743 1.701-1.176.616-5.738 2.625-8.815 1.684-3.078-.96-7.006-.76-7.006-.76l1.883-3.476z" fill="#FFAE73"/><path d="M114.25 54.883s6.571 32.566 14.391 35.046c3.856 1.231 20.746 3.53 25.688 3.566 0 0 1.158-1.05.615-5.032 0 0-17.867-5.377-20.546-8.725-4.001-4.979 1.032-21.361-3.892-25.96-4.924-4.597-12.853-6.226-16.256 1.105z" fill="#2D1686"/><path d="M135.85 161.146s-6.898 4.465-6.229 5.908c.095.192 3.898 7.062 3.898 7.062l4.911 8.756s2.063-1.232 1.089-4.061c-.975-2.809-1.567-8.12.936-11.565 2.637-3.617-4.605-6.1-4.605-6.1z" fill="#232536"/><path d="M174.398 66.594l-7.552 23.24.896.291 7.551-23.24-.895-.291z" fill="#F25B24"/><path d="M142.145 88.024l-.033 1.538 25.628.547.033-1.538-25.628-.547z" fill="#F25B24"/><path d="M153.431 179.269s3.385-1.367 4.761-1.941c1.394-.59 1.575-1.805 2.172-.995.615.793 3.584 3.222 5.177 3.492 1.575.287 11.416-.022 11.416 3.26 0 .53-4.963 1.003-11.783 2.239-6.384 1.156-7.895 1.289-11.001 1.289-1.394-.321-.742-7.344-.742-7.344z" fill="#232536"/><path d="M151.052 132.415c.054-3.548-4.163-13.486-7.313-19.478-4.942-9.594-8.056-17.07-8.056-17.07s-21.632 1.502-21.523 4.435c.217 5.557 5.195 10.499 7.367 12.907l4.635 4.489s4.579 4.544 7.856 8.436c4.381 5.213 3.113 7.367 5.25 14.445 1.918 6.354 13.274 40.347 13.274 40.347l9.721-4.036s-11.283-38.972-11.211-44.475z" fill="#2D1686"/><path d="M127.99 45.94s4.887 10.3 5.376 15.26c.489 4.96 2.227 15.478 2.408 18.266.181 2.788 0 16.51 0 16.51l-24.836 10.553s4.362-8.037 3.62-17.487c-.742-9.45-2.154-16.473-1.991-21.922.561-18.609 8.544-24.854 8.544-24.854l6.879 3.675z" fill="#fff"/><path d="M140.969 28.744s.996 4.598-.253 4.905c-1.032.254-.254 4.707-.181 5.43.072.707-1.919.634-2.426.942-.507.29-3.132 5.014-4.688 4.725-1.557-.29-7.712-4.652-8.997-7.114-1.304-2.48-.29-11.658 2.027-14.97 2.299-3.35 12.744-1.974 14.518 6.082z" fill="#FFAE73"/><path d="M131.9 42.103s-.163.489-.416 1.23c-.109.309-.218.689-.344 1.069-.091.308-.2.615-.29.941-.616 2.064-1.285 4.562-1.303 5.757-.037 2.262-7.404-8.889-7.404-8.889s2.317-6.914 3.656-14.97c1.322-8.037 6.101 14.862 6.101 14.862z" fill="#FFAE73"/><path d="M141.186 29.522s3.349-3.747.2-8.001c-3.15-4.272-12.02-.598-12.925-.598-.887 0-5.739-.923-5.504 7.984.2 7.838.507 7.566.507 7.566s2.48-3.24 3.512-3.638c1.611-.616 4.508.398 4.508.398s-.417-4.127 1.937-4.073c2.353.054 5.756-1.05 7.765.362z" fill="#292B2D"/><path d="M129.655 30.39c-.036-.56-.036-2.95-2.299-2.208s-.398 5.775-.09 5.92c.307.145 2.769 1.05 2.389-3.711z" fill="#FFAE73"/><path d="M136.899 98.97l-1.198-3.23-22.754 6.987v3.114l23.952-6.871z" fill="#404367"/><path d="M131.357 43.75s-.145.525-.38 1.195c-.091.272-.163.58-.272.923-2.498-2.154-3.475-4.652-3.494-4.724 1.919 1.05 4.146 2.606 4.146 2.606z" fill="#C69474"/><path d="M130.054 49.688s1.755 2.697 1.846 3.856c.036.434-1.484.163-1.484.163l-.362-4.02z" fill="#F25B24"/><path d="M136.767 99.012s30.251 23.031 32.912 29.692c2.082 5.214-29.391 39.804-29.391 39.804s-4.562-5.34-5.196-8.146c0 0 13.154-18.226 20.431-29.449 2.951-4.544-35.408-8.563-37.146-9.45-7.186-3.692-2.805-16.527-2.805-16.527l21.195-5.924z" fill="#2D1686"/><path d="M138.181 109.298s-16.611 4.744-29.011 3.079c.398-1.503 1.52-14.898 1.104-41.545-.308-20.274 1.936-24.74 9.937-28.83.199.199 10.892 5.555 10.911 20.435 0 .887.38 5.054.38 5.054s-.181 5.723-.38 6.591c-.815 3.802.488 1.112 0 4.823-.181 1.321-.308 2.77-.163 4.055.163 1.466.344 2.86.543 4.2 2.281 15.024 6.679 22.138 6.679 22.138z" fill="#4E33B5"/><path d="M118.432 183.246h3.367c.036 0 .054-.036.054-.054v-55.9c0-.036-.036-.054-.054-.054h-3.367c-.036 0-.055.036-.055.054v55.882c0 .054.019.072.055.072z" fill="#7C9BC7"/><path d="M104.475 186.921c1.647-4.29 8.019-7.476 15.659-7.476 7.621 0 14.011 3.204 15.658 7.476h-31.317zm3.765-14.518h24.312a.039.039 0 00.036-.036l-1.032-2.191c0-.018-.453-.036 0-.036H108.24a.039.039 0 00-.036.036v2.191c0 .018.018.036.036.036z" fill="#7C9BC7"/><path d="M100.364 133.248h39.285c2.122 0 3.864-1.666 3.864-3.693v-5.557c0-2.028-1.742-3.693-3.864-3.693h-39.285c-2.121.018-3.864 1.665-3.864 3.711v5.557c0 2.009 1.743 3.675 3.864 3.675zm31.495-79.39s4.424 9.927 5.413 21.344c1.013 11.843.716 16.197.716 16.197l-1.483 3.27-1.334-3.754s.593-15.249-2.991-29.762c-.642-2.632-1.754-7.624-1.754-7.624l1.433.328z" fill="#F25B24"/><path d="M131.52 88.644c-1.937-.29-3.494-.58-4.381-.833-5.467-1.557-7.042-17.885-9.793-27.57-2.372-8.363 1.919-13.92 8.508-8.272.054.036.108.09.163.127 2.679 2.353 3.638 8.743 4.109 14.554-.254.85-.561 1.701-.76 2.57-.815 3.802 2.262 7.476 1.774 11.187-.181 1.322-.308 2.77-.163 4.055.163 1.448.344 2.842.543 4.182z" fill="#2C1C82"/><path d="M153.876 83.213s.833.416 1.919.272c1.068-.145 4.724-.525 5.268-.145.543.38 2.172 2.1 2.57 2.462.398.362.887 1.701.887 1.701-.452.236-1.394-.923-1.937-1.068-.543-.145-5.177.779-6.354.453-1.194-.326-2.95-1.123-2.95-1.123l.597-2.552z" fill="#FFAE73"/><path d="M160.99 85.62c-.018.073.923 2.119 2.191 1.956l-.833-1.557-1.358-.398zm-5.213-2.135s1.665-.797 2.262-1.231c0 0 .218.199.163.416-.09.362-.651.923-.651.923l-1.774-.108z" fill="#FFAE73"/><path d="M126.868 48.439c-6.608-5.648-12.4.145-10.011 8.49 2.752 9.684 5.666 26.447 11.133 28.004 3.892 1.104 21.017 2.245 25.959 2.118 0 0 .814-.887.144-4.833 0 0-19.985-2.879-22.193-8.943-.778-2.154.199-20.256-4.87-24.691a1.312 1.312 0 01-.162-.145z" fill="#4E33B5"/><path d="M122.548 41.126s4.762 6.706 8.031 8.653l-.397 4.63-9.089-12.126 1.455-1.157z" fill="#fff"/></symbol></svg>