<svg width="221" height="195" fill="none" xmlns="http://www.w3.org/2000/svg"><path opacity=".03" fill-rule="evenodd" clip-rule="evenodd" d="M144.291 91.984L90.77.094 75.659 26.136 60.48.109.73 102.846h42.917l.001-.001h33.677l53.521 91.89 15.111-26.041 15.178 26.027 59.75-102.737H144.29zm-42.988 0H49.972l25.693-44.135 25.638 44.135zm-11.344 10.861l40.87 70.169 8.803-15.168-.003-.004.001-.002-32.015-54.995H89.959zm-52.62-10.86H19.675L60.494 21.8l8.858 15.19-32.014 54.994zm53.448-70.17l-8.802 15.169.002.004-.002.004 31.945 54.992h17.728l-40.87-70.17zm29.461 81.03h51.398l-25.699 44.145-25.699-44.145zm64.029 0l-32.013 54.992 8.859 15.192 40.818-70.184h-17.664z" fill="#201D26"/><path d="M19.45 88.97h4.355l4.83 7.788 4.829-7.788h4.312v18.389h-4.01V95.33l-5.175 7.875h-.086l-5.131-7.788v11.942h-3.967v-18.39h.043zm21.69 0h13.84v3.591h-9.83v3.721h8.667v3.592H45.15v3.85h9.96v3.635H41.14v-18.39zm16.514 0h7.158c5.779 0 9.746 3.98 9.746 9.216 0 5.192-3.968 9.216-9.746 9.216h-7.158V88.97zm7.158 14.754c3.32 0 5.52-2.25 5.52-5.538 0-3.245-2.242-5.538-5.52-5.538h-3.104v11.12h3.104v-.044zM77.275 88.97h4.053v18.389h-4.053v-18.39zm13.885-.13h3.708l7.891 18.519h-4.225l-1.682-4.111H89.09l-1.681 4.111h-4.097l7.848-18.52zm4.226 10.817l-2.415-5.971-2.458 5.971h4.873zm8.106-10.687h2.242l5.261 15.317 5.045-15.404h1.725l5.045 15.404 5.261-15.317h2.156l-6.555 18.562h-1.811l-5.045-14.928-5.045 14.928h-1.725l-6.554-18.562zm27.641 9.216c0-5.063 3.794-9.52 9.4-9.52 5.562 0 9.314 4.414 9.314 9.52 0 5.062-3.795 9.519-9.4 9.519-5.563 0-9.314-4.413-9.314-9.52zm16.558 0c0-4.197-3.062-7.615-7.244-7.615-4.183 0-7.202 3.375-7.202 7.615 0 4.197 3.062 7.615 7.245 7.615 4.226-.043 7.201-3.418 7.201-7.615zm5.476-9.216h7.891c2.242 0 4.053.692 5.217 1.86.906.909 1.423 2.164 1.423 3.678 0 3.072-2.113 4.846-4.958 5.366l5.605 7.485h-2.544l-5.304-7.139h-5.26v7.139h-2.07v-18.39zm7.718 9.39c2.76 0 4.701-1.429 4.701-3.852 0-2.25-1.725-3.634-4.701-3.634h-5.648v7.485h5.648zm26.52 6.316l1.293-1.514c1.897 1.731 3.752 2.596 6.296 2.596 2.458 0 4.096-1.298 4.096-3.202 0-1.731-.905-2.683-4.786-3.505-4.226-.908-6.166-2.293-6.166-5.365 0-2.9 2.544-5.02 6.036-5.02 2.674 0 4.571.78 6.469 2.25l-1.208 1.602c-1.725-1.385-3.406-1.99-5.304-1.99-2.371 0-3.924 1.297-3.924 3.028 0 1.73.949 2.726 5.002 3.591 4.097.91 5.994 2.38 5.994 5.279 0 3.159-2.63 5.193-6.252 5.193-2.933 0-5.347-.952-7.546-2.943zm-11.557-7.226l10.522-8.567h-2.717l-10.521 8.524h.043v-8.524h-2.113v18.562h2.113v-7.831l1.207-.995 9.271 8.826h2.717l-10.522-9.995z" fill="#201D26"/></svg>