<svg width="242" height="50" fill="none" xmlns="http://www.w3.org/2000/svg"><g clip-path="url(#clip0_1:2804)"><path d="M162.254 24.041v-7.028h6.704c.947 0 1.657.32 2.13.878.473.56.71 1.518.71 2.716 0 1.118-.237 1.997-.789 2.556-.473.559-1.262.878-2.13.878h-6.625zm0 10.544v-7.269h7.966c1.105 0 2.13-.16 2.919-.559.789-.32 1.499-.799 2.051-1.438.552-.639.946-1.278 1.183-2.076.237-.799.394-1.598.394-2.476 0-.959-.079-1.917-.315-2.716-.237-.799-.552-1.597-1.105-2.156-.473-.64-1.183-1.119-2.05-1.438-.868-.32-1.893-.48-3.156-.48h-12.305v20.687h4.418v-.08zm25.399.399c1.419 0 2.603-.08 3.628-.4a6.658 6.658 0 002.603-1.277c.71-.56 1.183-1.358 1.499-2.397.315-1.038.473-2.236.473-3.754 0-1.517-.158-2.715-.473-3.674-.316-.958-.868-1.757-1.578-2.316-.71-.56-1.577-.958-2.603-1.198a12.78 12.78 0 00-3.628-.32c-1.341 0-2.603.08-3.629.32-1.025.24-1.893.639-2.603 1.198-.71.56-1.183 1.358-1.498 2.316-.316.959-.553 2.237-.553 3.674 0 1.518.158 2.716.474 3.754.315 1.039.867 1.838 1.498 2.397a6.658 6.658 0 002.603 1.278c1.184.24 2.367.399 3.787.399zm0-12.62c.709 0 1.419.08 1.893.16.552.08.946.32 1.262.719.315.32.552.798.631 1.437.157.64.236 1.438.236 2.556 0 1.039-.079 1.837-.236 2.476-.158.64-.316 1.119-.631 1.438-.316.32-.71.56-1.262.719-.474.16-1.105.16-1.893.16-.71 0-1.341-.08-1.815-.16-.473-.16-.867-.4-1.183-.719-.315-.32-.552-.799-.631-1.438-.158-.639-.158-1.437-.158-2.476 0-1.038.079-1.917.158-2.556.158-.639.316-1.118.631-1.437.316-.32.71-.56 1.183-.72a9.473 9.473 0 011.815-.159zm16.564-2.396h-4.18v14.617h4.18V19.968zm-2.13-6.07c-.631 0-1.104 0-1.498.08-.395.08-.631.24-.789.479-.158.24-.237.639-.237 1.118 0 .56.079.959.237 1.278.158.32.394.48.789.56.315.079.867.159 1.498.159s1.105-.08 1.42-.16c.316-.08.631-.32.789-.559.158-.32.237-.719.237-1.278 0-.48-.079-.879-.237-1.118-.158-.24-.394-.4-.789-.48-.315-.08-.789-.08-1.42-.08zm19.247 6.469a11.25 11.25 0 00-1.893-.399c-.71-.08-1.341-.24-2.051-.32-.71-.08-1.341-.08-1.893-.08-1.499 0-2.761.16-3.865.4-1.105.32-1.972.799-2.603 1.517-.631.72-.947 1.678-.947 2.956 0 1.038.237 1.757.631 2.396a3.897 3.897 0 001.972 1.278c.868.24 1.972.48 3.234.559 1.026.08 1.814.16 2.288.32.552.16.946.319 1.104.559.237.24.316.479.316.878 0 .48-.158.879-.395 1.118-.237.24-.631.4-1.104.48-.473.08-1.183.16-1.893.16-.631 0-1.183 0-1.815-.08-.631-.08-1.262-.16-1.814-.24-.552-.08-1.104-.24-1.498-.32l-.868 2.796c.394.16.868.24 1.42.32.552.08 1.025.16 1.656.24.552.079 1.105.159 1.657.159s1.025.08 1.498.08c1.499 0 2.761-.16 3.865-.4 1.105-.32 1.972-.798 2.603-1.517.631-.72.947-1.678.947-2.955 0-.959-.237-1.758-.631-2.317-.394-.639-1.104-1.038-1.972-1.358-.868-.32-2.051-.559-3.471-.639-.946-.08-1.656-.16-2.208-.32-.552-.159-.868-.319-1.105-.478-.236-.24-.315-.48-.315-.8 0-.478.158-.878.394-1.117.237-.24.552-.4 1.026-.48.473-.08 1.025-.08 1.735-.08.552 0 1.183 0 1.814.08s1.183.16 1.736.24c.552.08 1.025.24 1.498.32l.947-2.956zm4.259 14.218V13.818h4.181V24.52h2.445c1.104-1.119 2.524-2.716 4.259-4.633h5.049c-1.657 1.917-3.077 3.435-4.26 4.473-1.104 1.118-1.893 1.837-2.366 2.077.315.16.789.559 1.42 1.198a45.07 45.07 0 012.445 2.636 91.234 91.234 0 013.313 4.153h-4.969c-1.972-2.396-3.55-4.233-4.733-5.511l-.158-.16h-2.287v5.75h-4.339v.08z" fill="#F25B24"/><path d="M70.597 31.23c-.237.08-.553.08-.868.16-.316.08-.71.08-1.026.08-.394 0-.788 0-1.104.08-1.262 0-2.366-.08-3.313-.24-.946-.16-1.656-.48-2.208-1.038-.553-.48-.947-1.199-1.263-2.157-.315-.958-.394-2.157-.394-3.674 0-1.198.079-2.237.237-3.035.158-.8.394-1.518.789-1.997.394-.48.788-.879 1.42-1.118a6.974 6.974 0 012.05-.56 27.52 27.52 0 012.84-.16h1.42c.552 0 1.104.08 1.656.08.552.08 1.105.16 1.578.16.473.08.946.16 1.262.24l.946-3.275c-.473-.08-1.025-.24-1.577-.32-.631-.08-1.183-.159-1.893-.239-.631-.08-1.262-.08-1.893-.16-.632-.08-1.184-.08-1.736-.08-1.893 0-3.628.16-5.048.48-1.499.32-2.682.878-3.707 1.597-1.026.799-1.736 1.837-2.209 3.195-.473 1.358-.71 3.035-.71 5.032 0 1.997.237 3.674.71 5.112.237 1.438.868 2.556 1.814 3.355.947.798 2.051 1.357 3.471 1.757 1.42.32 2.997.479 4.89.479.71 0 1.42 0 2.21-.08.788-.08 1.577-.08 2.287-.16.788-.08 1.498-.16 2.13-.24.63-.08 1.261-.239 1.735-.319V23.003h-9.624v3.195h5.128v5.032zm13.567-17.412h-4.18v20.687h4.18V13.818zm12.541 21.166c1.42 0 2.603-.08 3.629-.4a6.658 6.658 0 002.603-1.277c.71-.56 1.183-1.358 1.498-2.397.316-1.038.553-2.236.553-3.754 0-1.517-.158-2.715-.553-3.674-.394-.958-.867-1.757-1.577-2.316-.71-.56-1.578-.958-2.603-1.198-1.025-.24-2.288-.4-3.629-.32-1.34 0-2.603.08-3.549.32-1.025.24-1.893.639-2.603 1.198-.71.56-1.183 1.358-1.499 2.316-.315.959-.552 2.237-.552 3.674 0 1.518.158 2.716.552 3.754.316 1.039.868 1.838 1.499 2.397a6.654 6.654 0 002.603 1.278c1.025.24 2.209.399 3.628.399zm0-12.62c.79 0 1.42.08 1.894.16.473.08.946.32 1.261.719.316.32.553.798.632 1.437.157.64.236 1.438.157 2.556 0 1.039-.079 1.837-.157 2.476-.158.64-.316 1.119-.632 1.438-.315.32-.71.56-1.261.719-.553.16-1.105.16-1.894.16-.71 0-1.34-.08-1.814-.16a2.97 2.97 0 01-1.183-.719c-.316-.32-.473-.799-.631-1.438-.158-.639-.158-1.437-.158-2.476 0-1.038.08-1.917.158-2.556.158-.639.316-1.118.631-1.437.316-.32.71-.56 1.183-.72a9.46 9.46 0 011.814-.159zm16.565 1.677c0-.319.158-.559.473-.718.316-.24.71-.32 1.262-.48.552-.08 1.105-.16 1.736-.16.946 0 1.735.08 2.366.4.552.24 1.025.719 1.183 1.358.237.639.395 1.597.395 2.795 0 1.039-.079 1.837-.237 2.476-.158.64-.394 1.119-.71 1.438-.316.32-.71.56-1.183.719-.473.08-1.105.16-1.893.16-.552 0-1.105 0-1.736-.08-.552-.08-1.104-.16-1.656-.32v-7.588zm-4.181 9.825a8.46 8.46 0 001.657.4c.631.079 1.262.239 1.893.319.71.08 1.341.16 2.051.24.71.08 1.341.08 1.972.08 1.42 0 2.682-.08 3.707-.4a6.657 6.657 0 002.603-1.278c.71-.64 1.183-1.438 1.499-2.396.315-1.039.473-2.237.473-3.754 0-1.438-.158-2.716-.473-3.675-.316-.958-.71-1.757-1.341-2.316-.631-.559-1.341-.958-2.209-1.278a9.609 9.609 0 00-3.155-.32c-.947 0-1.814.08-2.603.32-.789.16-1.42.4-1.893.64v-6.63h-4.181v20.048zm34.391-8.706c0-1.438-.236-2.556-.788-3.435a4.374 4.374 0 00-2.446-1.757c-1.104-.32-2.524-.48-4.18-.48-.868 0-1.657 0-2.524.08-.789.08-1.657.16-2.367.32-.709.08-1.419.24-2.05.4l.788 2.955c.71-.24 1.499-.4 2.446-.48.946-.16 1.814-.16 2.839-.24.868 0 1.657 0 2.209.16.552.08 1.025.24 1.341.48.315.24.552.559.631.958.079.4.158.959.158 1.598-.71-.16-1.42-.24-2.13-.32-.71-.08-1.42-.08-2.13-.08-1.025 0-1.972.08-2.761.16-.867.08-1.577.32-2.129.719a3.114 3.114 0 00-1.42 1.438c-.316.639-.473 1.437-.473 2.476 0 1.278.236 2.236.709 2.955.474.719 1.262 1.198 2.288 1.518 1.104.32 2.524.399 4.338.399.631 0 1.262 0 1.893-.08.71-.08 1.341-.16 2.051-.24.71-.08 1.341-.24 2.051-.399.631-.16 1.262-.32 1.814-.48V25.16h-.158zm-4.101 6.55c-.473.159-1.026.239-1.657.319-.631.08-1.183.16-1.814.16-.868 0-1.499-.08-1.972-.16-.473-.08-.789-.32-.946-.64a2.482 2.482 0 01-.237-1.437c0-.639.079-1.038.315-1.358.237-.32.553-.479 1.026-.559.473-.08 1.104-.16 1.893-.16.631 0 1.262 0 1.814.08s1.105.08 1.578.16v3.594zm12.857-17.892h-4.181v20.687h4.181V13.818z" fill="#2D1686"/><path fill-rule="evenodd" clip-rule="evenodd" d="M0 25C0 11.182 11.043 0 24.689 0c7.888 0 14.83 3.754 19.325 9.505.71.878.552 2.156-.315 2.795-.868.72-2.13.56-2.76-.32-3.787-4.871-9.703-7.986-16.25-7.986C13.252 3.994 3.944 13.419 3.944 25s9.308 21.006 20.745 21.006c6.547 0 12.463-3.115 16.25-7.987.709-.878 1.971-1.038 2.76-.32.867.72 1.025 1.998.315 2.796C39.518 46.246 32.498 50 24.69 50 11.043 50 0 38.818 0 25z" fill="#2D1686"/><path fill-rule="evenodd" clip-rule="evenodd" d="M24.69 39.776c-8.047 0-14.594-6.629-14.594-14.776s6.547-14.776 14.593-14.776c10.018 0 22.717 11.82 22.717 14.776 0 2.955-12.7 14.776-22.717 14.776zm0-22.364c-4.181 0-7.494 3.435-7.494 7.588 0 4.153 3.391 7.588 7.493 7.588 4.18 0 7.493-3.435 7.493-7.588 0-4.153-3.391-7.588-7.493-7.588z" fill="#F25B24"/></g><defs><clipPath id="clip0_1:2804"><path fill="#fff" d="M0 0h242v50H0z"/></clipPath></defs></svg>